<?xml version="1.0" encoding="UTF-8"?>
<svg width="87px" height="79px" viewBox="0 0 87 79" version="1.1" xmlns="http://www.w3.org/2000/svg" xmlns:xlink="http://www.w3.org/1999/xlink">
    <!-- Generator: Sketch 52.3 (67297) - http://www.bohemiancoding.com/sketch -->
    <title>cups</title>
    <desc>Created with Sketch.</desc>
    <g id="Page-1" stroke="none" stroke-width="1" fill="none" fill-rule="evenodd">
        <g id="cups" transform="translate(0.000000, -0.305085)" fill="#000000" fill-rule="nonzero">
            <path d="M86.86,21.26 C85.5,20.75 83.78,21.61 82.37,23.51 C81.07,23.24 79.88,22.97 78.73,22.67 C73.5638767,21.300064 68.540919,19.438221 63.73,17.11 C64.3426653,15.1715461 64.4899787,13.11601 64.16,11.11 C64.16,11.01 64.16,10.91 64.09,10.81 L64,10.52 C63.9936892,10.4735467 63.9936892,10.4264533 64,10.38 C63.9594202,10.2655265 63.926022,10.1486328 63.9,10.03 C63.80607,9.84511969 63.7323119,9.65066649 63.68,9.45 L63.68,9.34 C63.058355,7.82869131 62.1246649,6.46564003 60.94,5.34 L60.94,5.27 C60.85,5.27 59.51,4.11 58.61,3.38 C56.8644156,2.20132457 54.9626956,1.27234276 52.96,0.62 L52.73,0.53 L52.73,0.6 C52.4470184,0.642804139 52.1883698,0.784529396 52,1 C51.7463622,1.24251308 51.5184834,1.51060568 51.32,1.8 C51.25,1.9 51.17,2.01 51.1,2.13 C51.03,2.25 50.77,2.66 50.59,2.97 L50.19,3.67 C50.06,3.9 49.57,4.83 49.46,5.09 L49.01,6.03 C48.89,6.22 48.64,6.79 47.9,8.48 L47.9,8.55 C47.27,10.03 46.67,11.55 46.1,13.06 C45.53,14.57 45,16.06 44.49,17.58 C44.27,18.26 44.05,18.97 43.83,19.69 C42.3818961,20.2370167 41.0588901,21.0702724 39.94,22.14 C38.5213981,23.5975915 37.6007347,25.4669233 37.31,27.48 C37.1726356,28.4200172 37.129088,29.3713645 37.18,30.32 C37.23,33.65 37.3,37.43 30.48,38.21 C28.9676025,38.3435494 27.497991,38.7823918 26.16,39.5 L24.62,38.89 L24.44,38.83 C22.92,38.26 21.38,37.73 19.85,37.23 C18.32,36.73 16.79,36.23 15.27,35.82 C13.75,35.41 12.55,35.09 11.43,34.82 C10.81,34.68 10.22,34.56 9.7,34.47 C9.18,34.38 8.7,34.31 8.29,34.27 C7.95790608,34.2329819 7.62413766,34.2129558 7.29,34.21 C6.47,34.21 6.02,34.38 5.9,34.73 C5.89458823,34.7631137 5.89458823,34.7968863 5.9,34.83 C5.00427487,37.2308924 4.52734885,39.7677329 4.49,42.33 C4.48552202,43.1604675 4.54906777,43.9899067 4.68,44.81 C4.95199861,46.7501632 5.75488362,48.5774188 7,50.09 C8.35659994,51.6122896 10.0522673,52.7941183 11.95,53.54 C10.7476256,58.7447977 9.04642797,63.8216002 6.87,68.7 C6.37,69.79 5.87,70.89 5.24,72.06 C2.88,71.96 1.13,72.77 0.67,74.15 L0.67,74.27 L13.46,78.46 L13.46,78.35 C13.91,77 13,75.28 11,74 C11.21,72.73 11.43,71.53 11.68,70.34 C12.8272238,65.1041908 14.4747918,59.9907023 16.6,55.07 C18.5597636,55.5932231 20.6151363,55.6480331 22.6,55.23 L23,55.12 L23.16,55.06 C23.2093371,55.0484857 23.2606629,55.0484857 23.31,55.06 L23.66,54.94 C23.8427848,54.8438419 24.0334844,54.7635473 24.23,54.7 L24.35,54.64 C25.6303922,53.9760853 26.8035384,53.1231946 27.83,52.11 L28.21,51.73 C28.9963484,51.0290702 29.6678478,50.2090987 30.2,49.3 C31.2499746,47.5081909 32.0475061,45.5799817 32.57,43.57 L32.63,43.3 C32.5798687,43.0679617 32.4573055,42.8578534 32.28,42.7 C32.9120678,42.5433748 33.5533223,42.4264794 34.2,42.35 C41.49,41.52 41.43,37.49 41.37,33.91 C41.3211507,33.0015898 41.3613424,32.0905791 41.49,31.19 C41.7074252,29.6775449 42.2872231,28.2400579 43.18,27 C45.5191145,27.9692781 48.0028393,28.5437451 50.53,28.7 C51.3544173,28.7355424 52.1803556,28.7054475 53,28.61 C54.9404673,28.4123489 56.788528,27.6821227 58.34,26.5 C59.9218873,25.2114321 61.1761144,23.5665441 62,21.7 C67.1482955,23.1286428 72.1478189,25.0474151 76.93,27.43 C78,27.97 79.08,28.55 80.21,29.2 C80.02,31.56 80.74,33.34 82.1,33.85 L82.22,33.85 L86.92,21.38 L86.92,21.26 L86.86,21.26 Z M38.86,28.37 C39.2085892,25.6615961 40.8030344,23.2717781 43.17,21.91 C43.05,22.37 42.95,22.76 42.87,23.11 L42.75,23.71 C42.55,23.88 42.38,24.03 42.23,24.18 C40.8130958,25.6387894 39.8927192,27.5075389 39.6,29.52 C39.4631596,30.4600673 39.4196144,31.4113625 39.47,32.36 C39.47,35.69 39.58,39.47 32.77,40.25 C31.6613425,40.3660407 30.572326,40.6248501 29.53,41.02 L29.37,40.94 C29.0066588,40.703164 28.6174736,40.5085714 28.21,40.36 C29.2882421,39.9105025 30.4273946,39.6240292 31.59,39.51 C38.88,38.68 38.82,34.64 38.76,31.09 C38.7155381,30.1812625 38.7590741,29.2703549 38.89,28.37 L38.86,28.37 Z M51.41,7 C51.3845946,7.07515386 51.3645445,7.15201286 51.35,7.23 C51.28,7.49 51.17,7.91 51.12,8.05 C50.56,10.05 49.89,12.14 49.12,14.22 C48.54,15.74 47.91,17.22 47.25,18.69 C46.3378712,18.8850142 45.4393252,19.1388785 44.56,19.45 C44.7,18.97 44.85,18.45 45.01,18 L45.06,17.83 C45.56,16.35 46.06,14.83 46.67,13.34 C47.28,11.85 47.83,10.34 48.45,8.84 C48.71,8.26 48.95,7.71 49.19,7.19 C49.19,7.19 49.59,6.33 49.61,6.3 L50.05,5.38 L50.05,5.31 L50.29,4.84 C50.4830613,4.58197573 50.6411018,4.2995203 50.76,4 C50.9,3.75 51.02,3.53 51.15,3.31 L51.65,2.48 L51.88,2.14 C52.0648084,1.86371449 52.2757812,1.60585884 52.51,1.37 L52.58,1.37 C52.53,1.69 52.48,2.01 52.42,2.37 C52.424772,2.46327234 52.424772,2.55672766 52.42,2.65 L52.42,2.82 C52.36,3.14 52.3,3.46 52.23,3.82 C52.23,3.97 52.09,4.5 51.99,4.93 C51.89,5.36 51.88,5.43 51.87,5.51 C51.87,5.7 51.78,5.89 51.73,6.08 C51.68,6.27 51.5,6.65 51.41,7 Z M44.41,20.08 C45.2587025,19.7608113 46.1271869,19.4969257 47.01,19.29 C46.92,19.49 46.83,19.68 46.73,19.87 C45.8649939,20.1215856 45.0194303,20.4357476 44.2,20.81 L44.41,20.08 Z M43.62,23.08 C43.73,22.61 43.85,22.08 43.99,21.58 L43.99,21.47 C44.7619157,21.0729038 45.5644999,20.7384938 46.39,20.47 C46.15,20.95 45.91,21.47 45.67,21.89 C44.9383015,22.2256313 44.2387375,22.6272948 43.58,23.09 L43.62,23.08 Z M43.21,25.68 C43.2241913,25.3450292 43.2575794,25.0111478 43.31,24.68 C43.31,24.43 43.4,24.16 43.46,23.83 C44.0318488,23.3919315 44.6446979,23.0101567 45.29,22.69 C45.1,23.03 44.92,23.37 44.73,23.69 C44.49,24.12 44.24,24.54 44,24.95 L43.49,25.78 L43.38,25.96 L43.33,26.02 L43.22,26.14 C43.1932042,25.9912992 43.1764994,25.8409559 43.17,25.69 L43.21,25.68 Z M28.4,42.68 L27.84,42.59 C28.3205531,42.1888464 28.8517741,41.8526306 29.42,41.59 L29.89,41.83 L30.74,42.3 L31.04,42.48 C30.6795123,42.6241915 30.3316458,42.7981248 30,43 L29.94,43 L29.47,42.93 L28.4,42.68 Z M7.12,34.89 C7.38666667,34.89 7.72,34.91 8.12,34.95 C8.53,34.95 9,35.06 9.54,35.15 C10.08,35.24 10.66,35.36 11.27,35.49 C12.43,35.74 13.68,36.05 14.99,36.41 L15.08,36.41 C16.59,36.84 18.13,37.32 19.64,37.81 C21.15,38.3 22.71,38.81 24.21,39.4 L25.51,39.91 C24.9150889,40.3368167 24.4033233,40.8689173 24,41.48 C23.94,41.57 23.88,41.66 23.83,41.75 C22.18,41.34 20.51,40.86 18.83,40.33 C16.0751491,39.4179742 13.3770421,38.3427385 10.75,37.11 C10.19,36.85 9.64,36.58 9.13,36.32 L7.84,35.65 L7,35.17 L6.58,34.93 C6.75822148,34.8987387 6.9391176,34.8853389 7.12,34.89 Z M24.43,41.77 C24.8640841,41.1315626 25.4259286,40.5901488 26.08,40.18 L26.79,40.47 L26.87,40.47 C26.2131043,40.8867184 25.6399213,41.4225937 25.18,42.05 L25.11,42.05 L24.38,41.87 C24.3985185,41.8376252 24.4152112,41.8042397 24.43,41.77 Z M31.85,43.18 L31.91,43.24 L31,43.13 L31.59,42.91 C31.6838992,42.992744 31.770857,43.0830464 31.85,43.18 Z M27.46,40.76 L27.73,40.88 L28.28,41.13 L28.78,41.37 C28.1865737,41.6677596 27.6406259,42.0519451 27.16,42.51 C26.83,42.44 26.5,42.38 26.16,42.3 C26.0887876,42.2750878 26.0149847,42.2583144 25.94,42.25 L25.74,42.25 C26.2117656,41.6469511 26.7958517,41.1409696 27.46,40.76 Z M40.93,31.09 C40.7978791,32.0338667 40.7543561,32.9880247 40.8,33.94 C40.86,37.27 40.92,41.05 34.1,41.83 C33.3012183,41.9181011 32.5115892,42.0753578 31.74,42.3 C31.49,42.11 31.38,42.02 31.31,41.98 C31.2015635,41.9053382 31.0879422,41.8385021 30.97,41.78 C30.75,41.64 30.49,41.5 30.2,41.34 C31.0648667,41.0616658 31.9563241,40.8739906 32.86,40.78 C40.14,39.94 40.08,35.91 40.02,32.33 C39.9742037,31.4212638 40.017746,30.5102265 40.15,29.61 C40.4325392,27.7247104 41.3000193,25.9757587 42.63,24.61 C42.58,24.98 42.54,25.3 42.53,25.61 C42.4756274,26.0188309 42.5489763,26.4344743 42.74,26.8 C41.8139802,28.0713245 41.1945081,29.5395761 40.93,31.09 Z M43.62,20.37 C43.54,20.65 43.46,20.92 43.39,21.19 C42.5154923,21.6588178 41.7110018,22.2478799 41,22.94 C39.578486,24.392776 38.6541995,26.2588543 38.36,28.27 C38.2281696,29.2138936 38.1846479,30.1680244 38.23,31.12 C38.29,34.45 38.35,38.23 31.53,39.01 C30.1425831,39.1398417 28.788716,39.5121552 27.53,40.11 L27,39.87 L26.78,39.77 C27.9583928,39.2199639 29.2243446,38.8814741 30.52,38.77 C37.81,37.93 37.74,33.9 37.69,30.33 C37.6408811,29.4182641 37.6810725,28.5039097 37.81,27.6 C38.2600903,24.300782 40.4949881,21.5196614 43.62,20.37 Z" id="Shape"></path>
        </g>
    </g>
</svg>