<svg height='100px' width='100px'  fill="#000000" xmlns="http://www.w3.org/2000/svg" data-name="Layer 1" viewBox="0 0 100 100" x="0px" y="0px"><title>nouns</title><path d="M96.86,30.26c-1.36-.51-3.08.35-4.49,2.25-1.3-.27-2.49-.54-3.64-.84a83.66,83.66,0,0,1-15-5.56,12.94,12.94,0,0,0,.43-6c0-.1,0-.2-.07-.3h0L74,19.52a.52.52,0,0,1,0-.14v0a2.92,2.92,0,0,1-.1-.35,2.89,2.89,0,0,1-.22-.58l0-.11h0a11.61,11.61,0,0,0-2.74-4l0,0,0-.07c-.09,0-1.43-1.16-2.33-1.89a22.61,22.61,0,0,0-5.65-2.76l-.23-.09v.07A1.21,1.21,0,0,0,62,10h0a5.09,5.09,0,0,0-.68.8h0c-.07.1-.15.21-.22.33s-.33.53-.51.84l-.4.7h0c-.13.23-.62,1.16-.73,1.42h0l-.45.94h0c-.12.19-.37.76-1.11,2.45l0,.07c-.63,1.48-1.23,3-1.8,4.51s-1.1,3-1.61,4.52c-.22.68-.44,1.39-.66,2.11a11.52,11.52,0,0,0-3.89,2.45,9.63,9.63,0,0,0-2.63,5.34,14.33,14.33,0,0,0-.13,2.84c.05,3.33.12,7.11-6.7,7.89a11.23,11.23,0,0,0-4.32,1.29l-1.54-.61h0l-.18-.06c-1.52-.57-3.06-1.1-4.59-1.6s-3.06-1-4.58-1.41-2.72-.73-3.84-1c-.62-.14-1.21-.26-1.73-.35s-1-.16-1.41-.2a9.81,9.81,0,0,0-1-.06h0c-.82,0-1.27.17-1.39.52a.31.31,0,0,0,0,.1,22.39,22.39,0,0,0-1.41,7.5,15.21,15.21,0,0,0,.19,2.48A10.63,10.63,0,0,0,17,59.09a13,13,0,0,0,4.95,3.45A83.14,83.14,0,0,1,16.87,77.7c-.5,1.09-1,2.19-1.63,3.36-2.36-.1-4.11.71-4.57,2.09l0,.12,12.79,4.19,0-.11C23.91,86,23,84.28,21,83c.21-1.27.43-2.47.68-3.66A83.69,83.69,0,0,1,26.6,64.07a12.93,12.93,0,0,0,6,.16l.4-.11v0l.16-.06a.33.33,0,0,1,.15,0h0l.35-.12a3.61,3.61,0,0,1,.57-.24l.12-.06h0a14.37,14.37,0,0,0,3.48-2.53v0l.38-.38A10.07,10.07,0,0,0,40.2,58.3a22.56,22.56,0,0,0,2.37-5.73l.06-.27h0a1.12,1.12,0,0,0-.35-.6,15.6,15.6,0,0,1,1.92-.35c7.29-.83,7.23-4.86,7.17-8.44a13.94,13.94,0,0,1,.12-2.72A9.48,9.48,0,0,1,53.18,36a22.89,22.89,0,0,0,7.35,1.7A15.56,15.56,0,0,0,63,37.61a10.58,10.58,0,0,0,5.34-2.11A12.92,12.92,0,0,0,72,30.7a83.62,83.62,0,0,1,14.93,5.73c1.07.54,2.15,1.12,3.28,1.77-.19,2.36.53,4.14,1.89,4.65l.12,0,4.7-12.47,0-.12Zm-48,7.11a8.74,8.74,0,0,1,4.31-6.46c-.12.46-.22.85-.3,1.2l-.12.6c-.2.17-.37.32-.52.47a9.66,9.66,0,0,0-2.63,5.34,14.41,14.41,0,0,0-.13,2.84c0,3.33.11,7.11-6.7,7.89a12.94,12.94,0,0,0-3.24.77l-.16-.08,0,0a5.7,5.7,0,0,0-1.16-.58,11.77,11.77,0,0,1,3.38-.85c7.29-.83,7.23-4.87,7.17-8.42A14.11,14.11,0,0,1,48.89,37.37ZM61.41,16h0a1.68,1.68,0,0,0-.06.23c-.07.26-.18.68-.23.82-.56,2-1.23,4.09-2,6.17-.58,1.52-1.21,3-1.87,4.47a21.61,21.61,0,0,0-2.69.76c.14-.48.29-1,.45-1.45l.05-.17c.5-1.48,1-3,1.61-4.49s1.16-3,1.78-4.5c.26-.58.5-1.13.74-1.65,0,0,.4-.86.42-.89l.44-.92,0-.07.24-.47h0a3.65,3.65,0,0,0,.47-.84c.14-.25.26-.47.39-.69l.5-.83.23-.34a5.18,5.18,0,0,1,.63-.77l.07,0v0c-.05.32-.1.64-.16,1a2.74,2.74,0,0,1,0,.28l0,.17c-.06.32-.12.64-.19,1,0,.15-.14.68-.24,1.11s-.11.5-.12.58h0c0,.19-.09.38-.14.57S61.5,15.65,61.41,16Zm-7,13.08a21,21,0,0,1,2.6-.79c-.09.2-.18.39-.28.58a18.58,18.58,0,0,0-2.53.94Zm-.79,3c.11-.47.23-1,.37-1.5l0-.11a16.2,16.2,0,0,1,2.4-1c-.24.48-.48,1-.72,1.42A13.24,13.24,0,0,0,53.58,32.09Zm-.41,2.6a8.77,8.77,0,0,1,.1-1c0-.25.09-.52.15-.85a11.18,11.18,0,0,1,1.83-1.14c-.19.34-.37.68-.56,1h0c-.24.43-.49.85-.73,1.26l-.51.83-.11.18-.05.06-.11.12A3.35,3.35,0,0,1,53.17,34.69Zm-14.81,17-.56-.09a7.14,7.14,0,0,1,1.58-1l.47.24.85.47.3.18A7,7,0,0,0,40,52h-.06l-.47-.07ZM17.12,43.89q.4,0,1,.06c.41,0,.88.11,1.42.2s1.12.21,1.73.34c1.16.25,2.41.56,3.72.92l.09,0c1.51.43,3.05.91,4.56,1.4s3.07,1,4.57,1.59l1.3.51A6,6,0,0,0,34,50.48c-.06.09-.12.18-.17.27-1.65-.41-3.32-.89-5-1.42a73.11,73.11,0,0,1-8.08-3.22c-.56-.26-1.11-.53-1.62-.79l-1.29-.67L17,44.17l-.42-.24A2.72,2.72,0,0,1,17.12,43.89Zm17.31,6.88a5.58,5.58,0,0,1,1.65-1.59l.71.29.08,0a6.24,6.24,0,0,0-1.69,1.58l-.07,0h0l-.73-.18h0A1,1,0,0,0,34.43,50.77Zm7.42,1.41.06.06h0L41,52.13l.59-.22A2.29,2.29,0,0,1,41.85,52.18Zm-4.39-2.42.27.12.55.25h0l.5.24a6.71,6.71,0,0,0-1.62,1.14c-.33-.07-.66-.13-1-.21h0a1,1,0,0,0-.22-.05l-.2,0A5.93,5.93,0,0,1,37.46,49.76Zm13.47-9.67a15.28,15.28,0,0,0-.13,2.85c.06,3.33.12,7.11-6.7,7.89a13.89,13.89,0,0,0-2.36.47c-.25-.19-.36-.28-.43-.32h0a2.77,2.77,0,0,0-.34-.2c-.22-.14-.48-.28-.77-.44a13.11,13.11,0,0,1,2.66-.56c7.28-.84,7.22-4.87,7.16-8.45a13.9,13.9,0,0,1,.13-2.72,9.1,9.1,0,0,1,2.48-5c-.05.37-.09.69-.1,1a2,2,0,0,0,.21,1.19A10.2,10.2,0,0,0,50.93,40.09Zm2.69-10.72c-.08.28-.16.55-.23.82A10.62,10.62,0,0,0,51,31.94a9.61,9.61,0,0,0-2.64,5.33,15.33,15.33,0,0,0-.13,2.85c.06,3.33.12,7.11-6.7,7.89a11.91,11.91,0,0,0-4,1.1h0L37,48.87h0l-.22-.1a11.09,11.09,0,0,1,3.74-1c7.29-.84,7.22-4.87,7.17-8.44a14,14,0,0,1,.12-2.73A9,9,0,0,1,53.62,29.37Z"></path></svg>