<?xml version="1.0" encoding="UTF-8"?>
<svg width="90px" height="59px" viewBox="0 0 90 59" version="1.1" xmlns="http://www.w3.org/2000/svg" xmlns:xlink="http://www.w3.org/1999/xlink">
    <!-- Generator: Sketch 52.3 (67297) - http://www.bohemiancoding.com/sketch -->
    <title>pentacles</title>
    <desc>Created with Sketch.</desc>
    <g id="Page-1" stroke="none" stroke-width="1" fill="none" fill-rule="evenodd">
        <g id="pentacles" fill="#000000" fill-rule="nonzero">
            <path d="M85.1,39.44 L81.67,42.82 L77.73,40.74 L77.91,38.25 L79.67,35.06 L84.4,36 L81.91,31.87 L85.09,28.25 L80.27,28.34 L78.72,23.78 L76.4,28 L71.67,27.05 L74.16,31.18 L71,34.81 L75.82,34.72 L77.16,38.72 L76.59,46.53 L74.59,47.82 L76.5,48.34 L75.95,55.89 C74.05,55.69 72.07,55.5 70.05,55.33 L69.74,50.5 L73.63,52.56 L72.42,47.9 L76.5,45.33 L71.8,44 L71.62,39.18 L68.18,42.56 L63.92,40.31 L65.13,45 L63.3,46.16 L63.67,36.16 L65.18,33.43 L69.91,34.43 L67.42,30.3 L70.6,26.68 L65.78,26.77 L64.23,22.21 L61.91,26.43 L57.72,25.59 L57.72,22.2 L58.88,20.11 L63.61,21.05 L61.12,16.92 L64.3,13.3 L59.48,13.4 L57.93,8.83 L55.6,13.05 L50.88,12.11 L53.37,16.23 L50.18,19.85 L55,19.76 L56.54,24.33 L56.98,23.53 L56.98,32.53 L56.48,33.11 L57,33.11 L57,41.8 L56.85,37.57 L53.4,41 L49.14,38.75 L50.35,43.42 L46.26,46 L50.91,47.29 L51.09,52.1 L54.18,49.1 L54.7,54.51 C51.65,54.42 48.59,54.37 45.63,54.37 L45.26,54.37 L45.26,43.95 L45.52,43.78 L45.26,43.71 L45.26,36.33 L46.92,32.67 L51.71,33.23 L48.9,29.31 L51.78,25.45 L46.98,25.93 L45.21,21.81 L45.21,15.48 L45.34,15.71 L46.88,11.15 L51.7,11.24 L48.52,7.62 L51.01,3.49 L46.29,4.43 L43.96,0.21 L42.41,4.78 L37.59,4.69 L40.77,8.31 L38.28,12.44 L43.01,11.49 L44.47,14.14 L44.47,22.81 L43,25.82 L38.21,25.26 L41.03,29.17 L38.16,33 L42.96,32.52 L44.26,35.52 L44.36,43.34 L40.83,42.34 L40.65,37.52 L37.22,41 L33.66,39.12 L33.54,34.06 L34,34.06 L33.56,33.56 L33.37,25.19 L33.5,25.43 L35,20.85 L39.82,20.94 L36.63,17.32 L39.12,13.2 L34.4,14.14 L32.07,9.92 L30.52,14.49 L25.7,14.39 L28.9,18 L26.41,22.12 L31.14,21.18 L32.58,23.78 L32.64,26.41 L28.55,27.23 L26.22,23 L24.68,27.6 L19.86,27.5 L23,31.12 L20.51,35.25 L25.24,34.31 L26.76,37 L26.91,41 L23.46,42.83 L20,39.44 L19.82,44.26 L15.2,45.54 L19.28,48.1 L18.07,52.77 L21.94,50.77 L21.36,55.33 C19.36,55.49 17.36,55.68 15.41,55.88 L14.64,55.96 L14.12,49.17 L15.81,48.71 L14,47.53 L13.39,39.71 L14.71,35.81 L19.53,35.9 L16.35,32.28 L18.84,28.15 L14.11,29.15 L11.78,24.93 L10.24,29.49 L5.42,29.4 L8.6,33 L6.11,37.1 L10.84,36.1 L12.63,39.36 L12.79,41.46 L8.68,43.64 L5.24,40.26 L5.06,45.08 L0.41,46.41 L4.5,49 L3.29,53.64 L7.18,51.58 L6.76,56.92 C4.04,57.34 2.55,57.66 2.34,57.92 L2.23,58 L2.23,58.16 C2.23,58.65 2.23,58.65 7.95,58.28 C14.88,57.88 27.76,57 44.9,57 L45.4,57 C62.77,57 75.85,57.84 82.87,58.29 C85.75,58.48 87.05,58.56 87.76,58.56 C88.47,58.56 88.61,58.49 88.65,58.16 L88.65,58 L88.54,57.88 C88.24,57.54 84.49,56.96 83.17,56.77 L83.17,50.69 L87.09,52.76 L85.84,48.1 L89.93,45.54 L85.28,44.26 L85.1,39.44 Z M12.82,41.88 L13.22,47.04 L11.73,46.1 L12.82,41.88 Z M7.9,51.73 L10.98,54.73 L11.16,50 L13.4,49.38 L13.92,56 C11.6,56.25 9.39,56.53 7.51,56.81 L7.9,51.73 Z M7.9,57.59 L7.43,57.59 L7.43,57.53 C9.35,57.25 11.6,56.96 13.95,56.7 L13.95,57.18 C11.59,57.35 9.47,57.49 7.92,57.59 L7.9,57.59 Z M21.14,56.84 C19.01,56.94 16.85,57.05 14.72,57.17 L14.72,56.65 C16.83,56.42 19.03,56.22 21.29,56.03 L21.14,56.84 Z M32.64,27.34 L32.76,32.7 L30.76,30.43 L32.64,27.34 Z M27,43.34 L27.09,45.59 L26.51,45.23 L27,43.34 Z M22.66,50.84 L25.77,53.9 L26,49.08 L27.26,48.73 L27.49,54.85 C25.69,54.96 23.9,55.09 22.16,55.23 L22.66,50.84 Z M21.91,56.84 L22,56 C23.79,55.86 25.63,55.73 27.46,55.62 L27.46,56.62 C25.65,56.65 23.77,56.73 21.91,56.81 L21.91,56.84 Z M27.91,48.56 L30.56,47.83 L27.81,46.1 L27.61,40.9 L27.68,40.6 L27.6,40.6 L27.52,38.41 L27.58,38.52 L29.15,34 L32.81,34.07 L33,44.12 L30,45.97 L33,46.8 L33.17,54.55 C31.42,54.63 29.71,54.71 28.08,54.81 L27.91,48.56 Z M28.21,56.56 L28.21,55.56 C29.87,55.46 31.57,55.38 33.29,55.31 L33.29,56.45 L28.21,56.56 Z M38.76,48.91 L42.58,50.91 L41.4,46.28 L44.4,44.41 L44.52,54.3 C42.45,54.3 40.39,54.3 38.39,54.39 L38.76,48.91 Z M33.69,41.65 L34.14,43.4 L33.73,43.65 L33.69,41.65 Z M37.45,56.34 L34.02,56.4 L34.02,55.25 L37.57,55.13 L37.45,56.34 Z M37.6,54.39 L34,54.52 L33.84,47 L34.73,47.25 L34.91,52.06 L38.05,49 L37.6,54.39 Z M38.18,56.33 L38.28,55.11 C40.28,55.06 42.41,55.03 44.48,55.02 L44.48,56.28 C42.44,56.3 40.31,56.31 38.21,56.34 L38.18,56.33 Z M45.37,56.33 L45.23,56.33 L45.23,55 L45.6,55 C48.6,55 51.6,55 54.74,55.15 L54.86,56.35 C51.75,56.32 48.56,56.29 45.4,56.29 L45.37,56.33 Z M57,56.42 L55.64,56.42 L55.52,55.24 L57,55.29 L57,56.42 Z M57,54.52 L55.45,54.52 L54.92,48.94 L57,50 L57,54.52 Z M63.23,48.14 L65.7,48.82 L65.88,53.64 L68.96,50.64 L69.27,55.25 C67.27,55.09 65.13,54.94 62.98,54.81 L63.23,48.14 Z M57.73,26.29 L59.73,29.51 L57.73,31.72 L57.73,26.29 Z M62.18,56.53 C60.75,56.53 59.27,56.44 57.73,56.41 L57.73,55.29 C59.22,55.35 60.73,55.43 62.22,55.51 L62.18,56.53 Z M62.56,46.6 L61.06,47.54 L62.51,47.94 L62.25,54.74 L57.73,54.52 L57.73,50.38 L58.8,50.95 L57.73,46.84 L57.73,46.19 L61.67,43.71 L57.73,42.63 L57.73,33.14 L61.32,33.07 L62.86,37.63 L62.86,37.57 L62.56,46.6 Z M62.92,56.55 L62.92,55.55 C65.05,55.68 67.19,55.83 69.28,56 L69.34,56.83 C67.24,56.73 65.07,56.65 62.91,56.58 L62.92,56.55 Z M75.81,57.12 L70.11,56.83 L70.05,56.03 C72.05,56.2 73.97,56.38 75.85,56.58 L75.81,57.12 Z M77.68,41.55 L78.68,45.2 L77.4,46 L77.68,41.55 Z M77.17,48.49 L79.17,49.05 L79.35,53.87 L82.35,50.87 L82.35,56.64 C80.59,56.39 78.63,56.15 76.53,55.92 L77.17,48.49 Z M82.45,57.49 C80.59,57.37 78.73,57.25 76.54,57.13 L76.54,56.62 C78.64,56.85 80.62,57.09 82.41,57.34 L82.45,57.49 Z M83.18,57.49 L84.18,57.64 L83.18,57.58 L83.18,57.49 Z" id="Shape"></path>
        </g>
    </g>
</svg>