<?xml version="1.0" encoding="UTF-8"?>
<svg width="100px" height="100px" viewBox="0 0 100 100" version="1.1" xmlns="http://www.w3.org/2000/svg" xmlns:xlink="http://www.w3.org/1999/xlink">
    <!-- Generator: Sketch 52.3 (67297) - http://www.bohemiancoding.com/sketch -->
    <title>swords</title>
    <desc>Created with Sketch.</desc>
    <g id="Page-1" stroke="none" stroke-width="1" fill="none" fill-rule="evenodd">
        <g id="swords" stroke="#000000" stroke-width="3.38983051">
            <path d="M25.4237288,57.6271186 C21.679661,57.6271186 18.6440678,54.5915254 18.6440678,50.8474576 C18.6440678,47.1033898 21.679661,44.0677966 25.4237288,44.0677966 C29.1677966,44.0677966 32.2033898,47.1033898 32.2033898,50.8474576 C32.2033898,54.5915254 29.1677966,57.6271186 25.4237288,57.6271186 Z" id="Path"></path>
            <path d="M50.8474576,32.2033898 C47.1033898,32.2033898 44.0677966,29.1677966 44.0677966,25.4237288 C44.0677966,21.679661 47.1033898,18.6440678 50.8474576,18.6440678 C54.5915254,18.6440678 57.6271186,21.679661 57.6271186,25.4237288 C57.6271186,29.1677966 54.5915254,32.2033898 50.8474576,32.2033898 Z" id="Path"></path>
            <path d="M96.6101695,91.8167797 L31.120339,26.3269492 L41.7576271,6.68966102 C42.7135593,4.92355932 41.9338983,2.71847458 40.079661,1.94559322 C38.4898305,1.28288136 36.6542373,1.92016949 35.8152542,3.42525424 L25.9372881,21.1438983 L9.8779661,5.08457627 C8.55423729,3.76084746 6.40847458,3.76084746 5.08474576,5.08457627 C3.76101695,6.40830508 3.76101695,8.5540678 5.08474576,9.87779661 L21.1423729,25.9354237 L3.42372881,35.8150847 C1.91864407,36.6540678 1.28135593,38.489661 1.94576271,40.0811864 C2.71864407,41.9354237 4.92372881,42.7150847 6.69152542,41.7574576 L26.3271186,31.1201695 L91.8169492,96.61 C93.140678,97.9337288 95.2864407,97.9337288 96.6101695,96.61 C97.9338983,95.2862712 97.9338983,93.1405085 96.6101695,91.8167797 Z" id="Path" stroke-linejoin="round"></path>
        </g>
    </g>
</svg>