<?xml version="1.0" encoding="UTF-8"?>
<svg width="80px" height="80px" viewBox="0 0 80 80" version="1.1" xmlns="http://www.w3.org/2000/svg" xmlns:xlink="http://www.w3.org/1999/xlink">
    <!-- Generator: Sketch 52.3 (67297) - http://www.bohemiancoding.com/sketch -->
    <title>wands</title>
    <desc>Created with Sketch.</desc>
    <g id="Page-1" stroke="none" stroke-width="1" fill="none" fill-rule="evenodd">
        <g id="wands" transform="translate(-1.000000, -1.000000)" fill="#000000">
            <path d="M40.01123,14.08301 L40.01123,28.5 C40.01123,29.05273 40.45898,29.5 41.01123,29.5 C41.56348,29.5 42.01123,29.05273 42.01123,28.5 L42.01123,14.08301 C42.01123,13.53028 41.56348,13.08301 41.01123,13.08301 C40.45898,13.08301 40.01123,13.53027 40.01123,14.08301 Z" id="Path"></path>
            <path d="M45.85449,5.83203 C45.85449,3.16113 43.68164,0.98828 41.01123,0.98828 C38.34082,0.98828 36.16797,3.16113 36.16797,5.83203 C36.16797,8.50293 38.34082,10.67578 41.01123,10.67578 C43.68164,10.67578 45.85449,8.50293 45.85449,5.83203 Z M41.01123,8.67578 C39.44336,8.67578 38.16797,7.40039 38.16797,5.83203 C38.16797,4.26367 39.44336,2.98828 41.01123,2.98828 C42.5791,2.98828 43.85449,4.26367 43.85449,5.83203 C43.85449,7.40039 42.5791,8.67578 41.01123,8.67578 Z" id="Shape" fill-rule="nonzero"></path>
            <path d="M21.26318,21.26367 C20.87256,21.65429 20.87256,22.28711 21.26318,22.67773 L31.45752,32.87109 C31.65283,33.0664 31.90869,33.16406 32.16455,33.16406 C32.42041,33.16406 32.67627,33.0664 32.87158,32.87109 C33.2622,32.48047 33.2622,31.84765 32.87158,31.45703 L22.67725,21.26367 C22.28662,20.87305 21.65381,20.87305 21.26318,21.26367 Z" id="Path"></path>
            <path d="M12.71094,12.71094 C10.82276,14.59961 10.82276,17.67188 12.71094,19.56055 C13.65528,20.50489 14.89551,20.97657 16.13574,20.97657 C17.37597,20.97657 18.61621,20.50489 19.56054,19.56055 C21.44921,17.67188 21.44921,14.59961 19.56054,12.71094 C17.67187,10.82227 14.59961,10.82227 12.71094,12.71094 Z M18.14648,18.14648 C17.07226,19.2207 15.19921,19.2207 14.125,18.14648 C13.0166,17.03808 13.0166,15.23339 14.125,14.125 C14.66211,13.58789 15.37598,13.29199 16.13574,13.29199 C16.8955,13.29199 17.60937,13.58789 18.14648,14.125 C18.68359,14.66211 18.97949,15.37598 18.97949,16.13574 C18.97949,16.8955 18.68359,17.60938 18.14648,18.14648 Z" id="Shape" fill-rule="nonzero"></path>
            <path d="M29.5,41.01172 C29.5,40.45899 29.05225,40.01172 28.5,40.01172 L14.0835,40.01172 C13.53125,40.01172 13.0835,40.45899 13.0835,41.01172 C13.0835,41.56445 13.53125,42.01172 14.0835,42.01172 L28.5,42.01172 C29.05225,42.01172 29.5,41.56445 29.5,41.01172 Z" id="Path"></path>
            <path d="M5.83203,45.85449 C8.50244,45.85449 10.67529,43.68164 10.67529,41.01172 C10.67529,38.34082 8.50244,36.16797 5.83203,36.16797 C3.16162,36.16797 0.98877,38.34082 0.98877,41.01172 C0.98877,43.68164 3.16162,45.85449 5.83203,45.85449 Z M5.83203,38.16797 C7.3999,38.16797 8.67529,39.44336 8.67529,41.01172 C8.67529,42.5791 7.3999,43.85449 5.83203,43.85449 C4.26416,43.85449 2.98877,42.5791 2.98877,41.01172 C2.98877,39.44336 4.26416,38.16797 5.83203,38.16797 Z" id="Shape" fill-rule="nonzero"></path>
            <path d="M21.97021,61.05176 C22.22607,61.05176 22.48193,60.9541 22.67724,60.75879 L32.87158,50.56543 C33.2622,50.17481 33.2622,49.54199 32.87158,49.15137 C32.48096,48.76075 31.84814,48.76075 31.45752,49.15137 L21.26318,59.34473 C20.87256,59.73535 20.87256,60.36817 21.26318,60.75879 C21.4585,60.9541 21.71436,61.05176 21.97021,61.05176 Z" id="Path"></path>
            <path d="M16.13574,70.72754 C17.37597,70.72754 18.61621,70.25586 19.56054,69.31152 C21.44921,67.42285 21.44921,64.35058 19.56054,62.46191 C17.67187,60.57324 14.5996,60.57324 12.71093,62.46191 C10.82275,64.35058 10.82275,67.42285 12.71093,69.31152 C13.65527,70.25586 14.89551,70.72754 16.13574,70.72754 Z M14.125,63.87598 C15.19922,62.80078 17.07227,62.80078 18.14648,63.87598 C18.68359,64.41309 18.97949,65.12696 18.97949,65.88672 C18.97949,66.64648 18.68359,67.36035 18.14648,67.89746 C17.07226,68.97168 15.19921,68.97168 14.125,67.89746 C13.0166,66.78906 13.0166,64.98438 14.125,63.87598 Z" id="Shape" fill-rule="nonzero"></path>
            <path d="M59.34521,60.75879 C59.54052,60.9541 59.79638,61.05176 60.05224,61.05176 C60.3081,61.05176 60.56396,60.9541 60.75927,60.75879 C61.14989,60.36817 61.14989,59.73535 60.75927,59.34473 L50.56494,49.15137 C50.17432,48.76075 49.5415,48.76075 49.15088,49.15137 C48.76026,49.54199 48.76026,50.17481 49.15088,50.56543 L59.34521,60.75879 Z" id="Path"></path>
            <path d="M65.88672,70.72754 C67.12695,70.72754 68.36719,70.25586 69.31152,69.31152 C71.20019,67.42285 71.20019,64.35058 69.31152,62.46191 C67.42285,60.57324 64.35058,60.57324 62.46191,62.46191 C60.57324,64.35058 60.57324,67.42285 62.46191,69.31152 C63.40625,70.25586 64.64648,70.72754 65.88672,70.72754 Z M63.87598,63.87598 C64.41309,63.33887 65.12696,63.04297 65.88672,63.04297 C66.64648,63.04297 67.36035,63.33887 67.89746,63.87598 C68.43457,64.41309 68.73047,65.12696 68.73047,65.88672 C68.73047,66.64648 68.43457,67.36035 67.89746,67.89746 C66.82324,68.97168 64.95019,68.97168 63.87598,67.89746 C63.33887,67.36035 63.04297,66.64648 63.04297,65.88672 C63.04297,65.12696 63.33887,64.41309 63.87598,63.87598 Z" id="Shape" fill-rule="nonzero"></path>
            <path d="M68.93896,41.01172 C68.93896,40.45899 68.49121,40.01172 67.93896,40.01172 L53.52246,40.01172 C52.97021,40.01172 52.52246,40.45899 52.52246,41.01172 C52.52246,41.56445 52.97021,42.01172 53.52246,42.01172 L67.93896,42.01172 C68.49121,42.01172 68.93896,41.56445 68.93896,41.01172 Z" id="Path"></path>
            <path d="M76.19043,36.16797 C73.52002,36.16797 71.34717,38.34082 71.34717,41.01172 C71.34717,43.68164 73.52002,45.85449 76.19043,45.85449 C78.86084,45.85449 81.03369,43.68164 81.03369,41.01172 C81.03369,38.34082 78.86084,36.16797 76.19043,36.16797 Z M76.19043,43.85449 C74.62256,43.85449 73.34717,42.5791 73.34717,41.01172 C73.34717,39.44336 74.62256,38.16797 76.19043,38.16797 C77.7583,38.16797 79.03369,39.44336 79.03369,41.01172 C79.03369,42.5791 77.7583,43.85449 76.19043,43.85449 Z" id="Shape" fill-rule="nonzero"></path>
            <path d="M59.34521,21.26367 L49.15088,31.45703 C48.76026,31.84765 48.76026,32.48047 49.15088,32.87109 C49.34619,33.0664 49.60205,33.16406 49.85791,33.16406 C50.11377,33.16406 50.36963,33.0664 50.56494,32.87109 L60.75928,22.67773 C61.1499,22.28711 61.1499,21.65429 60.75928,21.26367 C60.36866,20.87305 59.73584,20.87305 59.34521,21.26367 Z" id="Path"></path>
            <path d="M69.31152,12.71094 C67.42285,10.82227 64.35058,10.82227 62.46191,12.71094 C60.57324,14.59961 60.57324,17.67188 62.46191,19.56055 C63.40625,20.50489 64.64648,20.97657 65.88671,20.97657 C67.12694,20.97657 68.36718,20.50489 69.31151,19.56055 C71.2002,17.67188 71.2002,14.59961 69.31152,12.71094 Z M67.89746,18.14648 C66.82324,19.2207 64.95019,19.2207 63.87598,18.14648 C63.33887,17.60937 63.04297,16.8955 63.04297,16.13574 C63.04297,15.37598 63.33887,14.66211 63.87598,14.125 C64.41309,13.58789 65.12696,13.29199 65.88672,13.29199 C66.64648,13.29199 67.36035,13.58789 67.89746,14.125 C68.43457,14.66211 68.73047,15.37598 68.73047,16.13574 C68.73047,16.8955 68.43457,17.60938 67.89746,18.14648 Z" id="Shape" fill-rule="nonzero"></path>
            <path d="M45.31348,29.97461 C44.7959,29.77149 44.21875,30.02832 44.01856,30.54297 L43.47364,31.94141 C43.27296,32.45606 43.52784,33.03614 44.042,33.23633 C44.16163,33.28321 44.28419,33.30469 44.40479,33.30469 C44.80518,33.30469 45.18311,33.06348 45.33692,32.66797 L45.88184,31.26953 C46.08252,30.75488 45.82764,30.1748 45.31348,29.97461 Z" id="Path"></path>
            <path d="M46.49902,27.93359 C46.89892,27.93359 47.27685,27.69238 47.43066,27.29687 L48.59228,24.3164 C48.79296,23.80175 48.53857,23.22167 48.02392,23.02148 C47.50976,22.81933 46.92919,23.07421 46.729,23.58984 L45.56738,26.57031 C45.3667,27.08496 45.62109,27.66504 46.13574,27.86523 C46.25537,27.91211 46.37793,27.93359 46.49902,27.93359 Z" id="Path"></path>
            <path d="M52.15039,9.68262 L50.98877,12.66309 C50.78809,13.17774 51.04248,13.75782 51.55713,13.95801 C51.67676,14.00489 51.79932,14.02637 51.91992,14.02637 C52.32031,14.02637 52.69824,13.78516 52.85205,13.38965 L54.01367,10.40918 C54.21435,9.89453 53.95996,9.31445 53.44531,9.11426 C52.93164,8.91211 52.35107,9.16699 52.15039,9.68262 Z" id="Path"></path>
            <path d="M49.43994,16.63672 L48.27832,19.61621 C48.07764,20.13086 48.33203,20.71094 48.84668,20.91113 C48.96582,20.95801 49.08887,20.97949 49.20947,20.97949 C49.60986,20.97949 49.98779,20.73828 50.1416,20.34277 L51.30322,17.36328 C51.5039,16.84863 51.24951,16.26855 50.73486,16.06836 C50.22119,15.86719 49.63965,16.12207 49.43994,16.63672 Z" id="Path"></path>
            <path d="M55.53955,3.74316 C55.02393,3.54004 54.4458,3.79687 54.24463,4.31152 L53.69971,5.70898 C53.49903,6.22363 53.75342,6.80371 54.26807,7.0039 C54.38721,7.05078 54.51026,7.07226 54.63086,7.07226 C55.03125,7.07226 55.40869,6.83105 55.56299,6.43554 L56.10791,5.03808 C56.30859,4.52344 56.0542,3.94336 55.53955,3.74316 Z" id="Path"></path>
            <path d="M36.33887,32.85645 C36.50342,33.23145 36.87012,33.45411 37.25489,33.45411 C37.38917,33.45411 37.52589,33.42677 37.65675,33.37013 C38.16212,33.14747 38.3921,32.55763 38.16993,32.05177 L37.5669,30.67872 C37.34571,30.17286 36.75635,29.94727 36.24903,30.16505 C35.74366,30.38771 35.51368,30.97755 35.73585,31.48341 L36.33887,32.85645 Z" id="Path"></path>
            <path d="M29.73535,17.81543 L31.02099,20.74414 C31.18554,21.11914 31.55224,21.3418 31.93701,21.3418 C32.07129,21.3418 32.20752,21.31446 32.33838,21.25782 C32.84424,21.03516 33.07422,20.44532 32.85205,19.93946 L31.56641,17.01075 C31.34473,16.50489 30.75635,16.27833 30.24903,16.49708 C29.74316,16.71973 29.51318,17.30957 29.73535,17.81543 Z" id="Path"></path>
            <path d="M28.56641,10.17676 C28.34473,9.6709 27.75537,9.44629 27.24903,9.66309 C26.74317,9.88575 26.51319,10.47559 26.73536,10.98145 L28.021,13.91016 C28.18555,14.28516 28.55225,14.50782 28.93702,14.50782 C29.0713,14.50782 29.20753,14.48048 29.33839,14.42384 C29.84425,14.20118 30.07423,13.61134 29.85206,13.10548 L28.56641,10.17676 Z" id="Path"></path>
            <path d="M34.9375,28.17578 C35.07178,28.17578 35.20801,28.14844 35.33887,28.0918 C35.84473,27.86914 36.07471,27.2793 35.85254,26.77344 L34.5669,23.84473 C34.34522,23.33887 33.75538,23.11231 33.24952,23.33106 C32.74366,23.55372 32.51368,24.14356 32.73585,24.64942 L34.02149,27.57813 C34.18604,27.95312 34.55273,28.17578 34.9375,28.17578 Z" id="Path"></path>
            <path d="M26.24902,4.89844 C26.02734,4.39453 25.4375,4.16699 24.93164,4.38477 C24.42578,4.60743 24.1958,5.19727 24.41797,5.70313 L25.021,7.07715 C25.18555,7.45117 25.55225,7.67481 25.93702,7.67481 C26.0713,7.67481 26.20753,7.64747 26.33839,7.59083 C26.84425,7.36817 27.07423,6.77833 26.85206,6.27247 L26.24902,4.89844 Z" id="Path"></path>
            <path d="M31.27002,36.14062 C30.7544,35.93847 30.17627,36.19433 29.9751,36.70898 C29.77442,37.22363 30.02881,37.80371 30.54346,38.0039 L31.94092,38.54882 C32.06006,38.5957 32.18311,38.61718 32.30371,38.61718 C32.7041,38.61718 33.08154,38.37597 33.23584,37.98046 C33.43652,37.46581 33.18213,36.88573 32.66748,36.68554 L31.27002,36.14062 Z" id="Path"></path>
            <path d="M9.11377,28.57715 C8.91309,29.0918 9.16748,29.67188 9.68213,29.87207 L12.6626,31.03418 C12.78174,31.08106 12.90479,31.10254 13.02539,31.10254 C13.42578,31.10254 13.80371,30.86133 13.95752,30.46582 C14.1582,29.95117 13.90381,29.37109 13.38916,29.1709 L10.40869,28.00879 C9.89111,27.80566 9.31396,28.0625 9.11377,28.57715 Z" id="Path"></path>
            <path d="M19.6167,33.74414 C19.73584,33.79102 19.8584,33.8125 19.97949,33.8125 C20.37939,33.8125 20.75732,33.57129 20.91113,33.17578 C21.11181,32.66113 20.85693,32.08105 20.34228,31.88086 L17.36181,30.71973 C16.84765,30.51758 16.26757,30.77344 16.06738,31.28809 C15.8667,31.80274 16.12158,32.38282 16.63623,32.58301 L19.6167,33.74414 Z" id="Path"></path>
            <path d="M26.56982,36.45508 C26.68896,36.50196 26.81201,36.52344 26.93261,36.52344 C27.333,36.52344 27.71044,36.28223 27.86474,35.88672 C28.06542,35.37207 27.81103,34.79199 27.29638,34.5918 L24.3164,33.42969 C23.80224,33.22657 23.22216,33.4834 23.02148,33.99805 C22.8208,34.5127 23.07519,35.09278 23.58984,35.29297 L26.56982,36.45508 Z" id="Path"></path>
            <path d="M5.0376,25.91504 C4.521,25.71289 3.94287,25.96875 3.74268,26.4834 C3.542,26.99805 3.79639,27.57813 4.31104,27.77832 L5.70899,28.32324 C5.82862,28.37012 5.95118,28.3916 6.07178,28.3916 C6.47217,28.3916 6.8501,28.15039 7.00391,27.75488 C7.20459,27.24023 6.9502,26.66015 6.43555,26.45996 L5.0376,25.91504 Z" id="Path"></path>
            <path d="M33.37012,44.36523 C33.14844,43.85937 32.5586,43.63085 32.05225,43.85253 L30.67871,44.45605 C30.17334,44.67773 29.94336,45.26757 30.16553,45.77343 C30.33008,46.14843 30.69678,46.37109 31.08155,46.37109 C31.21583,46.37109 31.35255,46.34375 31.48341,46.28613 L32.85695,45.68261 C33.3623,45.46094 33.59229,44.87109 33.37012,44.36523 Z" id="Path"></path>
            <path d="M19.94043,49.16895 L17.01123,50.45508 C16.50537,50.67774 16.27539,51.26758 16.49756,51.77344 C16.66211,52.14844 17.02881,52.3711 17.41358,52.3711 C17.54786,52.3711 17.68458,52.34376 17.81495,52.28712 L20.74415,51.00099 C21.25001,50.77833 21.47999,50.18849 21.25782,49.68263 C21.03662,49.17773 20.44727,48.95117 19.94043,49.16895 Z" id="Path"></path>
            <path d="M26.77393,46.16895 L23.84522,47.45508 C23.33936,47.67774 23.10938,48.26758 23.33155,48.77344 C23.4961,49.14844 23.8628,49.3711 24.24757,49.3711 C24.38185,49.3711 24.51857,49.34376 24.64894,49.28712 L27.57765,48.00099 C28.08351,47.77833 28.31349,47.18849 28.09132,46.68263 C27.86963,46.17676 27.27979,45.9502 26.77393,46.16895 Z" id="Path"></path>
            <path d="M9.66406,54.77246 C9.82861,55.14746 10.19531,55.37109 10.58008,55.37109 C10.71436,55.37109 10.85059,55.34375 10.98145,55.28711 L13.91016,54.00195 C14.41602,53.77929 14.646,53.18945 14.42383,52.68457 C14.20215,52.17871 13.61279,51.95312 13.10645,52.16992 L10.17774,53.45508 C9.67188,53.67773 9.44189,54.26758 9.66406,54.77246 Z" id="Path"></path>
            <path d="M6.27246,55.1709 L4.89892,55.77442 C4.39355,55.9961 4.16357,56.58594 4.38574,57.0918 C4.55029,57.4668 4.91699,57.68946 5.30176,57.68946 C5.43604,57.68946 5.57276,57.66212 5.70362,57.6045 L7.07716,57.00098 C7.58253,56.7793 7.81251,56.18946 7.59034,55.6836 C7.36865,55.17773 6.77832,54.9502 6.27246,55.1709 Z" id="Path"></path>
            <path d="M49.35498,45.33691 L50.75244,45.88183 C50.87158,45.92871 50.99463,45.95019 51.11523,45.95019 C51.51562,45.95019 51.89306,45.70898 52.04736,45.31347 C52.24804,44.79882 51.99365,44.21874 51.479,44.01855 L50.08154,43.47363 C49.56738,43.27051 48.9873,43.52734 48.78662,44.04199 C48.58594,44.55664 48.84033,45.13672 49.35498,45.33691 Z" id="Path"></path>
            <path d="M55.45264,45.56738 C54.9375,45.36523 54.35889,45.62109 54.15772,46.13574 C53.95704,46.65039 54.21143,47.23047 54.72608,47.43066 L57.70606,48.59277 C57.8252,48.63965 57.94825,48.66113 58.06885,48.66113 C58.46924,48.66113 58.84668,48.41992 59.00098,48.02441 C59.20166,47.50976 58.94727,46.92968 58.43262,46.72949 L55.45264,45.56738 Z" id="Path"></path>
            <path d="M62.40576,48.27832 C61.8916,48.07617 61.31152,48.33203 61.11133,48.84668 C60.91065,49.36133 61.16553,49.94141 61.68018,50.1416 L64.66065,51.30273 C64.77979,51.34961 64.90235,51.37109 65.02344,51.37109 C65.42334,51.37109 65.80127,51.12988 65.95508,50.73437 C66.15576,50.21972 65.90088,49.63964 65.38623,49.43945 L62.40576,48.27832 Z" id="Path"></path>
            <path d="M71.97656,54.08203 C72.37695,54.08203 72.75488,53.84082 72.90869,53.44531 C73.10937,52.93066 72.85498,52.35058 72.34033,52.15039 L69.35986,50.98828 C68.84619,50.78613 68.26465,51.04199 68.06494,51.55664 C67.86426,52.07129 68.11865,52.65137 68.6333,52.85156 L71.61377,54.01367 C71.7334,54.06055 71.85596,54.08203 71.97656,54.08203 Z" id="Path"></path>
            <path d="M76.98486,56.10742 C77.104,56.1543 77.22705,56.17578 77.34765,56.17578 C77.74804,56.17578 78.12548,55.93457 78.27978,55.53906 C78.48046,55.02441 78.22607,54.44433 77.71142,54.24414 L76.31396,53.69922 C75.79834,53.49707 75.21972,53.75293 75.01904,54.26758 C74.81836,54.78223 75.07275,55.36231 75.5874,55.5625 L76.98486,56.10742 Z" id="Path"></path>
            <path d="M49.56885,38.25488 C49.70313,38.25488 49.83985,38.22754 49.97071,38.16992 L51.34376,37.5664 C51.84962,37.34472 52.07911,36.75488 51.85694,36.24902 C51.63477,35.74316 51.04639,35.51464 50.53907,35.73632 L49.16602,36.33984 C48.66016,36.56152 48.43067,37.15136 48.65284,37.65722 C48.81738,38.03223 49.18408,38.25488 49.56885,38.25488 Z" id="Path"></path>
            <path d="M72.3584,27.24902 C72.13721,26.74414 71.54541,26.51757 71.04102,26.73535 L68.11231,28.02148 C67.60645,28.24414 67.37647,28.83398 67.59864,29.33984 C67.76319,29.71484 68.12989,29.9375 68.51466,29.9375 C68.64894,29.9375 68.78566,29.91016 68.91603,29.85352 L71.84474,28.56739 C72.35059,28.34473 72.58057,27.75488 72.3584,27.24902 Z" id="Path"></path>
            <path d="M54.84717,35.9375 C54.98145,35.9375 55.11817,35.91016 55.24854,35.85352 L58.17725,34.56739 C58.68311,34.34473 58.91309,33.75489 58.69092,33.24903 C58.46924,32.74317 57.87891,32.51758 57.37354,32.73536 L54.44483,34.02149 C53.93897,34.24415 53.70899,34.83399 53.93116,35.33985 C54.0957,35.71484 54.4624,35.9375 54.84717,35.9375 Z" id="Path"></path>
            <path d="M61.68115,32.9375 C61.81543,32.9375 61.95215,32.91016 62.08252,32.85352 L65.01123,31.56739 C65.51709,31.34473 65.74707,30.75489 65.5249,30.24903 C65.30322,29.74317 64.71289,29.51661 64.20752,29.73536 L61.27881,31.02149 C60.77295,31.24415 60.54297,31.83399 60.76514,32.33985 C60.92969,32.71484 61.29639,32.9375 61.68115,32.9375 Z" id="Path"></path>
            <path d="M75.34814,26.93652 C75.48242,26.93652 75.61914,26.90918 75.75,26.85156 L77.12354,26.24804 C77.62891,26.02636 77.85889,25.43652 77.63672,24.93066 C77.41504,24.4248 76.82471,24.19628 76.31885,24.41796 L74.94531,25.02148 C74.43994,25.24316 74.20996,25.833 74.43213,26.33886 C74.59668,26.71387 74.96338,26.93652 75.34814,26.93652 Z" id="Path"></path>
            <path d="M44.5,81 C45.05225,81 45.5,80.55273 45.5,80 L45.5,39 C45.5,37.3457 44.1543,36 42.50049,36 L39.49951,36 C37.8457,36 36.5,37.3457 36.5,39 L36.5,80 C36.5,80.55273 36.94775,81 37.5,81 C38.05225,81 38.5,80.55273 38.5,80 L38.5,53.38867 L43.5,53.38867 L43.5,80 C43.5,80.55273 43.94775,81 44.5,81 Z M38.5,51.38867 L38.5,39 C38.5,38.44824 38.94824,38 39.49951,38 L42.50049,38 C43.05176,38 43.5,38.44824 43.5,39 L43.5,51.38867 L38.5,51.38867 Z" id="Shape" fill-rule="nonzero"></path>
        </g>
    </g>
</svg>