<svg height='100px' width='100px'  fill="#000000" xmlns="http://www.w3.org/2000/svg" data-name="Layer 1" viewBox="0 0 100 100" x="0px" y="0px"><title>nouns</title><path d="M90.1,53.44l-3.43,3.38-3.94-2.08.18-2.49,1.76-3.19L89.4,50l-2.49-4.13,3.18-3.62-4.82.09-1.55-4.56L81.4,42l-4.73-.95,2.49,4.13L76,48.81l4.82-.09,1.34,4-.57,7.81-2,1.29,1.91.52-.55,7.55c-1.9-.2-3.88-.39-5.9-.56l-.31-4.83,3.89,2.06-1.21-4.66,4.08-2.57L76.8,58l-.18-4.82-3.44,3.38-4.26-2.25L70.13,59,68.3,60.16l.37-10,1.51-2.73,4.73,1-2.49-4.13,3.18-3.62-4.82.09-1.55-4.56-2.32,4.22-4.19-.84V36.2l1.16-2.09,4.73.94-2.49-4.13L69.3,27.3l-4.82.1-1.55-4.57L60.6,27.05l-4.72-.94,2.49,4.12-3.19,3.62L60,33.76l1.54,4.57.44-.8v9l-.5.58H62v8.69l-.15-4.23L58.4,55l-4.26-2.25,1.21,4.67L51.26,60l4.65,1.29.18,4.81,3.09-3,.52,5.41c-3.05-.09-6.11-.14-9.07-.14h-.37l0-10.42.26-.17-.26-.07,0-7.38,1.66-3.66,4.79.56-2.81-3.92,2.88-3.86-4.8.48-1.77-4.12,0-6.33.13.23,1.54-4.56,4.82.09-3.18-3.62,2.49-4.13-4.72.94-2.33-4.22-1.55,4.57-4.82-.09,3.18,3.62-2.49,4.13,4.73-.95,1.46,2.65,0,8.67L48,39.82l-4.79-.56,2.82,3.91L43.16,47l4.8-.48,1.3,3,.1,7.82-3.53-1-.18-4.82L42.22,55l-3.56-1.88-.12-5.06H39l-.44-.5-.19-8.37.13.24L40,34.85l4.82.09-3.19-3.62,2.49-4.12-4.72.94-2.33-4.22-1.55,4.57-4.82-.1L33.9,32l-2.49,4.12,4.73-.94,1.44,2.6.06,2.63-4.09.82L31.22,37,29.68,41.6l-4.82-.1L28,45.12l-2.49,4.13,4.73-.94L31.76,51l.15,4-3.45,1.83L25,53.44l-.18,4.82L20.2,59.54l4.08,2.56-1.21,4.67,3.87-2-.58,4.56c-2,.16-4,.35-5.95.55l-.77.08-.52-6.79,1.69-.46L19,61.53l-.61-7.82,1.32-3.9,4.82.09-3.18-3.62,2.49-4.13-4.73,1-2.33-4.22-1.54,4.56-4.82-.09L13.6,47,11.11,51.1l4.73-1,1.79,3.26.16,2.1-4.11,2.18-3.44-3.38-.18,4.82L5.41,60.41,9.5,63,8.29,67.64l3.89-2.06-.42,5.34c-2.72.42-4.21.74-4.42,1L7.23,72l0,.16c0,.49,0,.49,5.72.12C19.88,71.88,32.76,71,49.9,71h.5c17.37,0,30.45.84,37.47,1.29,2.88.19,4.18.27,4.89.27s.85-.07.89-.4V72l-.11-.12c-.3-.34-4.05-.92-5.37-1.11l0-6.08,3.92,2.07L90.84,62.1l4.09-2.56-4.65-1.28Zm-30.6,9.1ZM11.71,71.67h0Zm6.11-15.79.4,5.16-1.49-.94Zm-5.25,9.35Zm.33.5,3.08,3L16.16,64l2.24-.62L18.92,70c-2.32.25-4.53.53-6.41.81Zm0,5.86-.47,0v-.06c1.92-.28,4.17-.57,6.52-.83l0,.48C16.59,71.35,14.47,71.49,12.92,71.59Zm13.24-.75c-2.13.1-4.29.21-6.42.33l0-.52c2.11-.23,4.31-.43,6.57-.62Zm11.5-29.5.12,5.36-2-2.27ZM32,57.34l.09,2.25-.58-.36Zm-4.34,7.5,3.11,3.06L31,63.08l1.26-.35.23,6.12c-1.8.11-3.59.24-5.33.38Zm-.75,6L27,70c1.79-.14,3.63-.27,5.46-.38l0,1C30.65,70.65,28.77,70.73,26.91,70.81Zm6-8.28,2.65-.73-2.75-1.73-.2-5.2.07-.3-.08,0-.08-2.19.06.11L34.15,48l3.66.07L38,58.12l-3,1.85,3,.83.17,7.75c-1.75.08-3.46.16-5.09.26Zm.3,8,0-1c1.66-.1,3.36-.18,5.08-.25l0,1.14Zm10.55-7.65,3.82,2L46.4,60.28l3-1.87.12,9.89c-2.07,0-4.13,0-6.13.09Zm-5.07-7.26.45,1.75-.41.25Zm3.76,14.69-3.43.06,0-1.15,3.55-.12Zm.15-1.95L39,68.52,38.84,61l.89.25.18,4.81L43.05,63Zm.58,1.94.1-1.22c2-.05,4.13-.08,6.2-.09l0,1.26C47.44,70.3,45.31,70.31,43.21,70.34Zm7.19,0h-.14V69h.37c3,0,6,0,9.14.15l.12,1.2C56.75,70.32,53.56,70.29,50.4,70.29ZM62,70.42l-1.36,0-.12-1.18,1.48.05Zm0-1.9-1.55,0-.53-5.58L62,64Zm12.3-4.38Zm-6.07-2,2.47.68.18,4.82,3.08-3,.31,4.61c-2-.16-4.14-.31-6.29-.44Zm-5.5-21.85,2,3.22-2,2.21Zm4.45,30.24c-1.43,0-2.91-.09-4.45-.12V69.29c1.49.06,3,.14,4.49.22Zm.38-9.93-1.5.94,1.45.4-.26,6.8-4.52-.22V64.38l1.07.57-1.07-4.11v-.65l3.94-2.48-3.94-1.08V47.14l3.59-.07,1.54,4.56,0-.06Zm.36,9.95,0-1c2.13.13,4.27.28,6.36.45l.06.83C72.24,70.73,70.07,70.65,67.91,70.58Zm12.89.57-5.7-.29-.06-.8c2,.17,3.92.35,5.8.55Zm1.87-15.57,1,3.65-1.28.8Zm-.51,6.94,2,.56.18,4.82,3-3,0,5.77c-1.76-.25-3.72-.49-5.82-.72Zm5.28,9c-1.86-.12-3.72-.24-5.91-.36l0-.51c2.1.23,4.08.47,5.87.72Zm.73,0,1,.15-1-.06Z"></path></svg>