<svg height='100px' width='100px'  fill="#000000" xmlns="http://www.w3.org/2000/svg" xmlns:xlink="http://www.w3.org/1999/xlink" viewBox="0 0 59 59" version="1.1" x="0px" y="0px"><title>28 -Sword- (symbols, sign, symbolism)</title><desc>Created with Sketch.</desc><g stroke="none" stroke-width="1" fill="none" fill-rule="evenodd" stroke-linecap="round"><g transform="translate(-960.000000, -590.000000)" stroke="#000000" stroke-width="2"><g transform="translate(960.000000, 590.000000)"><path d="M15,34 C12.791,34 11,32.209 11,30 C11,27.791 12.791,26 15,26 C17.209,26 19,27.791 19,30 C19,32.209 17.209,34 15,34 L15,34 Z"></path><path d="M30,19 C27.791,19 26,17.209 26,15 C26,12.791 27.791,11 30,11 C32.209,11 34,12.791 34,15 C34,17.209 32.209,19 30,19 L30,19 Z"></path><path d="M57,54.1719 L18.361,15.5329 L24.637,3.9469 C25.201,2.9049 24.741,1.6039 23.647,1.1479 C22.709,0.7569 21.626,1.1329 21.131,2.0209 L15.303,12.4749 L5.828,2.9999 C5.047,2.2189 3.781,2.2189 3,2.9999 C2.219,3.7809 2.219,5.0469 3,5.8279 L12.474,15.3019 L2.02,21.1309 C1.132,21.6259 0.756,22.7089 1.148,23.6479 L1.148,23.6479 C1.604,24.7419 2.905,25.2019 3.948,24.6369 L15.533,18.3609 L54.172,56.9999 C54.953,57.7809 56.219,57.7809 57,56.9999 C57.781,56.2189 57.781,54.9529 57,54.1719 L57,54.1719 Z" stroke-linejoin="round"></path></g></g></g></svg>