<svg height='100px' width='100px'  fill="#000000" xmlns="http://www.w3.org/2000/svg" xmlns:xlink="http://www.w3.org/1999/xlink" version="1.1" x="0px" y="0px" viewBox="0 0 100 100" style="enable-background:new 0 0 100 100;" xml:space="preserve"><path d="M49.01123,23.08301V37.5c0,0.55273,0.44775,1,1,1s1-0.44727,1-1V23.08301c0-0.55273-0.44775-1-1-1  S49.01123,22.53027,49.01123,23.08301z"></path><path d="M54.85449,14.83203c0-2.6709-2.17285-4.84375-4.84326-4.84375s-4.84326,2.17285-4.84326,4.84375  s2.17285,4.84375,4.84326,4.84375S54.85449,17.50293,54.85449,14.83203z M50.01123,17.67578  c-1.56787,0-2.84326-1.27539-2.84326-2.84375s1.27539-2.84375,2.84326-2.84375s2.84326,1.27539,2.84326,2.84375  S51.5791,17.67578,50.01123,17.67578z"></path><path d="M30.26318,30.26367c-0.39062,0.39062-0.39062,1.02344,0,1.41406l10.19434,10.19336  c0.19531,0.19531,0.45117,0.29297,0.70703,0.29297s0.51172-0.09766,0.70703-0.29297c0.39062-0.39062,0.39062-1.02344,0-1.41406  L31.67725,30.26367C31.28662,29.87305,30.65381,29.87305,30.26318,30.26367z"></path><path d="M21.71094,21.71094c-1.88818,1.88867-1.88818,4.96094,0,6.84961c0.94434,0.94434,2.18457,1.41602,3.4248,1.41602  s2.48047-0.47168,3.4248-1.41602c1.88867-1.88867,1.88867-4.96094,0-6.84961S23.59961,19.82227,21.71094,21.71094z   M27.14648,27.14648c-1.07422,1.07422-2.94727,1.07422-4.02148,0c-1.1084-1.1084-1.1084-2.91309,0-4.02148  c0.53711-0.53711,1.25098-0.83301,2.01074-0.83301s1.47363,0.2959,2.01074,0.83301s0.83301,1.25098,0.83301,2.01074  S27.68359,26.60938,27.14648,27.14648z"></path><path d="M38.5,50.01172c0-0.55273-0.44775-1-1-1H23.0835c-0.55225,0-1,0.44727-1,1s0.44775,1,1,1H37.5  C38.05225,51.01172,38.5,50.56445,38.5,50.01172z"></path><path d="M14.83203,54.85449c2.67041,0,4.84326-2.17285,4.84326-4.84277c0-2.6709-2.17285-4.84375-4.84326-4.84375  s-4.84326,2.17285-4.84326,4.84375C9.98877,52.68164,12.16162,54.85449,14.83203,54.85449z M14.83203,47.16797  c1.56787,0,2.84326,1.27539,2.84326,2.84375c0,1.56738-1.27539,2.84277-2.84326,2.84277s-2.84326-1.27539-2.84326-2.84277  C11.98877,48.44336,13.26416,47.16797,14.83203,47.16797z"></path><path d="M30.97021,70.05176c0.25586,0,0.51172-0.09766,0.70703-0.29297l10.19434-10.19336  c0.39062-0.39062,0.39062-1.02344,0-1.41406s-1.02344-0.39062-1.41406,0L30.26318,68.34473  c-0.39062,0.39062-0.39062,1.02344,0,1.41406C30.4585,69.9541,30.71436,70.05176,30.97021,70.05176z"></path><path d="M25.13574,79.72754c1.24023,0,2.48047-0.47168,3.4248-1.41602c1.88867-1.88867,1.88867-4.96094,0-6.84961  s-4.96094-1.88867-6.84961,0c-1.88818,1.88867-1.88818,4.96094,0,6.84961C22.65527,79.25586,23.89551,79.72754,25.13574,79.72754z   M23.125,72.87598c1.07422-1.0752,2.94727-1.0752,4.02148,0c0.53711,0.53711,0.83301,1.25098,0.83301,2.01074  s-0.2959,1.47363-0.83301,2.01074c-1.07422,1.07422-2.94727,1.07422-4.02148,0C22.0166,75.78906,22.0166,73.98438,23.125,72.87598z"></path><path d="M68.34521,69.75879c0.19531,0.19531,0.45117,0.29297,0.70703,0.29297s0.51172-0.09766,0.70703-0.29297  c0.39062-0.39062,0.39062-1.02344,0-1.41406L59.56494,58.15137c-0.39062-0.39062-1.02344-0.39062-1.41406,0  s-0.39062,1.02344,0,1.41406L68.34521,69.75879z"></path><path d="M74.88672,79.72754c1.24023,0,2.48047-0.47168,3.4248-1.41602c1.88867-1.88867,1.88867-4.96094,0-6.84961  s-4.96094-1.88867-6.84961,0s-1.88867,4.96094,0,6.84961C72.40625,79.25586,73.64648,79.72754,74.88672,79.72754z   M72.87598,72.87598c0.53711-0.53711,1.25098-0.83301,2.01074-0.83301s1.47363,0.2959,2.01074,0.83301  s0.83301,1.25098,0.83301,2.01074s-0.2959,1.47363-0.83301,2.01074c-1.07422,1.07422-2.94727,1.07422-4.02148,0  c-0.53711-0.53711-0.83301-1.25098-0.83301-2.01074S72.33887,73.41309,72.87598,72.87598z"></path><path d="M77.93896,50.01172c0-0.55273-0.44775-1-1-1h-14.4165c-0.55225,0-1,0.44727-1,1s0.44775,1,1,1h14.4165  C77.49121,51.01172,77.93896,50.56445,77.93896,50.01172z"></path><path d="M85.19043,45.16797c-2.67041,0-4.84326,2.17285-4.84326,4.84375c0,2.66992,2.17285,4.84277,4.84326,4.84277  s4.84326-2.17285,4.84326-4.84277C90.03369,47.34082,87.86084,45.16797,85.19043,45.16797z M85.19043,52.85449  c-1.56787,0-2.84326-1.27539-2.84326-2.84277c0-1.56836,1.27539-2.84375,2.84326-2.84375s2.84326,1.27539,2.84326,2.84375  C88.03369,51.5791,86.7583,52.85449,85.19043,52.85449z"></path><path d="M68.34521,30.26367L58.15088,40.45703c-0.39062,0.39062-0.39062,1.02344,0,1.41406  c0.19531,0.19531,0.45117,0.29297,0.70703,0.29297s0.51172-0.09766,0.70703-0.29297l10.19434-10.19336  c0.39062-0.39062,0.39062-1.02344,0-1.41406S68.73584,29.87305,68.34521,30.26367z"></path><path d="M78.31152,21.71094c-1.88867-1.88867-4.96094-1.88867-6.84961,0s-1.88867,4.96094,0,6.84961  c0.94434,0.94434,2.18457,1.41602,3.4248,1.41602s2.48047-0.47168,3.4248-1.41602  C80.2002,26.67188,80.2002,23.59961,78.31152,21.71094z M76.89746,27.14648c-1.07422,1.07422-2.94727,1.07422-4.02148,0  c-0.53711-0.53711-0.83301-1.25098-0.83301-2.01074s0.2959-1.47363,0.83301-2.01074s1.25098-0.83301,2.01074-0.83301  s1.47363,0.2959,2.01074,0.83301s0.83301,1.25098,0.83301,2.01074S77.43457,26.60938,76.89746,27.14648z"></path><path d="M54.31348,38.97461c-0.51758-0.20312-1.09473,0.05371-1.29492,0.56836l-0.54492,1.39844  c-0.20068,0.51465,0.0542,1.09473,0.56836,1.29492c0.11963,0.04688,0.24219,0.06836,0.36279,0.06836  c0.40039,0,0.77832-0.24121,0.93213-0.63672l0.54492-1.39844C55.08252,39.75488,54.82764,39.1748,54.31348,38.97461z"></path><path d="M55.49902,36.93359c0.3999,0,0.77783-0.24121,0.93164-0.63672l1.16162-2.98047  c0.20068-0.51465-0.05371-1.09473-0.56836-1.29492c-0.51416-0.20215-1.09473,0.05273-1.29492,0.56836l-1.16162,2.98047  c-0.20068,0.51465,0.05371,1.09473,0.56836,1.29492C55.25537,36.91211,55.37793,36.93359,55.49902,36.93359z"></path><path d="M61.15039,18.68262l-1.16162,2.98047c-0.20068,0.51465,0.05371,1.09473,0.56836,1.29492  c0.11963,0.04688,0.24219,0.06836,0.36279,0.06836c0.40039,0,0.77832-0.24121,0.93213-0.63672l1.16162-2.98047  c0.20068-0.51465-0.05371-1.09473-0.56836-1.29492C61.93164,17.91211,61.35107,18.16699,61.15039,18.68262z"></path><path d="M58.43994,25.63672l-1.16162,2.97949c-0.20068,0.51465,0.05371,1.09473,0.56836,1.29492  c0.11914,0.04688,0.24219,0.06836,0.36279,0.06836c0.40039,0,0.77832-0.24121,0.93213-0.63672l1.16162-2.97949  c0.20068-0.51465-0.05371-1.09473-0.56836-1.29492C59.22119,24.86719,58.63965,25.12207,58.43994,25.63672z"></path><path d="M64.53955,12.74316c-0.51562-0.20312-1.09375,0.05371-1.29492,0.56836l-0.54492,1.39746  c-0.20068,0.51465,0.05371,1.09473,0.56836,1.29492c0.11914,0.04688,0.24219,0.06836,0.36279,0.06836  c0.40039,0,0.77783-0.24121,0.93213-0.63672l0.54492-1.39746C65.30859,13.52344,65.0542,12.94336,64.53955,12.74316z"></path><path d="M45.33887,41.85645c0.16455,0.375,0.53125,0.59766,0.91602,0.59766c0.13428,0,0.271-0.02734,0.40186-0.08398  c0.50537-0.22266,0.73535-0.8125,0.51318-1.31836l-0.60303-1.37305c-0.22119-0.50586-0.81055-0.73145-1.31787-0.51367  c-0.50537,0.22266-0.73535,0.8125-0.51318,1.31836L45.33887,41.85645z"></path><path d="M38.73535,26.81543l1.28564,2.92871c0.16455,0.375,0.53125,0.59766,0.91602,0.59766  c0.13428,0,0.27051-0.02734,0.40137-0.08398c0.50586-0.22266,0.73584-0.8125,0.51367-1.31836l-1.28564-2.92871  c-0.22168-0.50586-0.81006-0.73242-1.31738-0.51367C38.74316,25.71973,38.51318,26.30957,38.73535,26.81543z"></path><path d="M37.56641,19.17676c-0.22168-0.50586-0.81104-0.73047-1.31738-0.51367c-0.50586,0.22266-0.73584,0.8125-0.51367,1.31836  l1.28564,2.92871c0.16455,0.375,0.53125,0.59766,0.91602,0.59766c0.13428,0,0.27051-0.02734,0.40137-0.08398  c0.50586-0.22266,0.73584-0.8125,0.51367-1.31836L37.56641,19.17676z"></path><path d="M43.9375,37.17578c0.13428,0,0.27051-0.02734,0.40137-0.08398c0.50586-0.22266,0.73584-0.8125,0.51367-1.31836  l-1.28564-2.92871c-0.22168-0.50586-0.81152-0.73242-1.31738-0.51367c-0.50586,0.22266-0.73584,0.8125-0.51367,1.31836  l1.28564,2.92871C43.18604,36.95312,43.55273,37.17578,43.9375,37.17578z"></path><path d="M35.24902,13.89844c-0.22168-0.50391-0.81152-0.73145-1.31738-0.51367c-0.50586,0.22266-0.73584,0.8125-0.51367,1.31836  l0.60303,1.37402c0.16455,0.37402,0.53125,0.59766,0.91602,0.59766c0.13428,0,0.27051-0.02734,0.40137-0.08398  c0.50586-0.22266,0.73584-0.8125,0.51367-1.31836L35.24902,13.89844z"></path><path d="M40.27002,45.14062c-0.51562-0.20215-1.09375,0.05371-1.29492,0.56836c-0.20068,0.51465,0.05371,1.09473,0.56836,1.29492  l1.39746,0.54492c0.11914,0.04688,0.24219,0.06836,0.36279,0.06836c0.40039,0,0.77783-0.24121,0.93213-0.63672  c0.20068-0.51465-0.05371-1.09473-0.56836-1.29492L40.27002,45.14062z"></path><path d="M18.11377,37.57715c-0.20068,0.51465,0.05371,1.09473,0.56836,1.29492l2.98047,1.16211  c0.11914,0.04688,0.24219,0.06836,0.36279,0.06836c0.40039,0,0.77832-0.24121,0.93213-0.63672  c0.20068-0.51465-0.05371-1.09473-0.56836-1.29492l-2.98047-1.16211C18.89111,36.80566,18.31396,37.0625,18.11377,37.57715z"></path><path d="M28.6167,42.74414c0.11914,0.04688,0.2417,0.06836,0.36279,0.06836c0.3999,0,0.77783-0.24121,0.93164-0.63672  c0.20068-0.51465-0.0542-1.09473-0.56885-1.29492l-2.98047-1.16113c-0.51416-0.20215-1.09424,0.05371-1.29443,0.56836  c-0.20068,0.51465,0.0542,1.09473,0.56885,1.29492L28.6167,42.74414z"></path><path d="M35.56982,45.45508c0.11914,0.04688,0.24219,0.06836,0.36279,0.06836c0.40039,0,0.77783-0.24121,0.93213-0.63672  c0.20068-0.51465-0.05371-1.09473-0.56836-1.29492l-2.97998-1.16211c-0.51416-0.20312-1.09424,0.05371-1.29492,0.56836  s0.05371,1.09473,0.56836,1.29492L35.56982,45.45508z"></path><path d="M14.0376,34.91504c-0.5166-0.20215-1.09473,0.05371-1.29492,0.56836c-0.20068,0.51465,0.05371,1.09473,0.56836,1.29492  l1.39795,0.54492c0.11963,0.04688,0.24219,0.06836,0.36279,0.06836c0.40039,0,0.77832-0.24121,0.93213-0.63672  c0.20068-0.51465-0.05371-1.09473-0.56836-1.29492L14.0376,34.91504z"></path><path d="M42.37012,53.36523c-0.22168-0.50586-0.81152-0.73438-1.31787-0.5127l-1.37354,0.60352  c-0.50537,0.22168-0.73535,0.81152-0.51318,1.31738c0.16455,0.375,0.53125,0.59766,0.91602,0.59766  c0.13428,0,0.271-0.02734,0.40186-0.08496l1.37354-0.60352C42.3623,54.46094,42.59229,53.87109,42.37012,53.36523z"></path><path d="M28.94043,58.16895l-2.9292,1.28613c-0.50586,0.22266-0.73584,0.8125-0.51367,1.31836  c0.16455,0.375,0.53125,0.59766,0.91602,0.59766c0.13428,0,0.271-0.02734,0.40137-0.08398l2.9292-1.28613  c0.50586-0.22266,0.73584-0.8125,0.51367-1.31836C30.03662,58.17773,29.44727,57.95117,28.94043,58.16895z"></path><path d="M35.77393,55.16895l-2.92871,1.28613c-0.50586,0.22266-0.73584,0.8125-0.51367,1.31836  c0.16455,0.375,0.53125,0.59766,0.91602,0.59766c0.13428,0,0.271-0.02734,0.40137-0.08398l2.92871-1.28613  c0.50586-0.22266,0.73584-0.8125,0.51367-1.31836C36.86963,55.17676,36.27979,54.9502,35.77393,55.16895z"></path><path d="M18.66406,63.77246c0.16455,0.375,0.53125,0.59863,0.91602,0.59863c0.13428,0,0.27051-0.02734,0.40137-0.08398  l2.92871-1.28516c0.50586-0.22266,0.73584-0.8125,0.51367-1.31738c-0.22168-0.50586-0.81104-0.73145-1.31738-0.51465  l-2.92871,1.28516C18.67188,62.67773,18.44189,63.26758,18.66406,63.77246z"></path><path d="M15.27246,64.1709l-1.37354,0.60352c-0.50537,0.22168-0.73535,0.81152-0.51318,1.31738  c0.16455,0.375,0.53125,0.59766,0.91602,0.59766c0.13428,0,0.271-0.02734,0.40186-0.08496l1.37354-0.60352  c0.50537-0.22168,0.73535-0.81152,0.51318-1.31738C16.36865,64.17773,15.77832,63.9502,15.27246,64.1709z"></path><path d="M58.35498,54.33691l1.39746,0.54492c0.11914,0.04688,0.24219,0.06836,0.36279,0.06836  c0.40039,0,0.77783-0.24121,0.93213-0.63672c0.20068-0.51465-0.05371-1.09473-0.56836-1.29492l-1.39746-0.54492  c-0.51416-0.20312-1.09424,0.05371-1.29492,0.56836S57.84033,54.13672,58.35498,54.33691z"></path><path d="M64.45264,54.56738c-0.51514-0.20215-1.09375,0.05371-1.29492,0.56836c-0.20068,0.51465,0.05371,1.09473,0.56836,1.29492  l2.97998,1.16211c0.11914,0.04688,0.24219,0.06836,0.36279,0.06836c0.40039,0,0.77783-0.24121,0.93213-0.63672  c0.20068-0.51465-0.05371-1.09473-0.56836-1.29492L64.45264,54.56738z"></path><path d="M71.40576,57.27832c-0.51416-0.20215-1.09424,0.05371-1.29443,0.56836c-0.20068,0.51465,0.0542,1.09473,0.56885,1.29492  l2.98047,1.16113c0.11914,0.04688,0.2417,0.06836,0.36279,0.06836c0.3999,0,0.77783-0.24121,0.93164-0.63672  c0.20068-0.51465-0.0542-1.09473-0.56885-1.29492L71.40576,57.27832z"></path><path d="M80.97656,63.08203c0.40039,0,0.77832-0.24121,0.93213-0.63672c0.20068-0.51465-0.05371-1.09473-0.56836-1.29492  l-2.98047-1.16211c-0.51367-0.20215-1.09521,0.05371-1.29492,0.56836c-0.20068,0.51465,0.05371,1.09473,0.56836,1.29492  l2.98047,1.16211C80.7334,63.06055,80.85596,63.08203,80.97656,63.08203z"></path><path d="M85.98486,65.10742c0.11914,0.04688,0.24219,0.06836,0.36279,0.06836c0.40039,0,0.77783-0.24121,0.93213-0.63672  c0.20068-0.51465-0.05371-1.09473-0.56836-1.29492l-1.39746-0.54492c-0.51562-0.20215-1.09424,0.05371-1.29492,0.56836  s0.05371,1.09473,0.56836,1.29492L85.98486,65.10742z"></path><path d="M58.56885,47.25488c0.13428,0,0.271-0.02734,0.40186-0.08496l1.37305-0.60352  c0.50586-0.22168,0.73535-0.81152,0.51318-1.31738s-0.81055-0.73438-1.31787-0.5127l-1.37305,0.60352  c-0.50586,0.22168-0.73535,0.81152-0.51318,1.31738C57.81738,47.03223,58.18408,47.25488,58.56885,47.25488z"></path><path d="M81.3584,36.24902c-0.22119-0.50488-0.81299-0.73145-1.31738-0.51367l-2.92871,1.28613  c-0.50586,0.22266-0.73584,0.8125-0.51367,1.31836c0.16455,0.375,0.53125,0.59766,0.91602,0.59766  c0.13428,0,0.271-0.02734,0.40137-0.08398l2.92871-1.28613C81.35059,37.34473,81.58057,36.75488,81.3584,36.24902z"></path><path d="M63.84717,44.9375c0.13428,0,0.271-0.02734,0.40137-0.08398l2.92871-1.28613  c0.50586-0.22266,0.73584-0.8125,0.51367-1.31836c-0.22168-0.50586-0.81201-0.73145-1.31738-0.51367l-2.92871,1.28613  c-0.50586,0.22266-0.73584,0.8125-0.51367,1.31836C63.0957,44.71484,63.4624,44.9375,63.84717,44.9375z"></path><path d="M70.68115,41.9375c0.13428,0,0.271-0.02734,0.40137-0.08398l2.92871-1.28613  c0.50586-0.22266,0.73584-0.8125,0.51367-1.31836c-0.22168-0.50586-0.81201-0.73242-1.31738-0.51367l-2.92871,1.28613  c-0.50586,0.22266-0.73584,0.8125-0.51367,1.31836C69.92969,41.71484,70.29639,41.9375,70.68115,41.9375z"></path><path d="M84.34814,35.93652c0.13428,0,0.271-0.02734,0.40186-0.08496l1.37354-0.60352  c0.50537-0.22168,0.73535-0.81152,0.51318-1.31738c-0.22168-0.50586-0.81201-0.73438-1.31787-0.5127l-1.37354,0.60352  c-0.50537,0.22168-0.73535,0.81152-0.51318,1.31738C83.59668,35.71387,83.96338,35.93652,84.34814,35.93652z"></path><path d="M53.5,90c0.55225,0,1-0.44727,1-1V48c0-1.6543-1.3457-3-2.99951-3h-3.00098C46.8457,45,45.5,46.3457,45.5,48v41  c0,0.55273,0.44775,1,1,1s1-0.44727,1-1V62.38867h5V89C52.5,89.55273,52.94775,90,53.5,90z M47.5,60.38867V48  c0-0.55176,0.44824-1,0.99951-1h3.00098C52.05176,47,52.5,47.44824,52.5,48v12.38867H47.5z"></path></svg>