<?xml version="1.0" encoding="UTF-8"?>
<svg width="26px" height="26px" viewBox="0 0 26 26" version="1.1" xmlns="http://www.w3.org/2000/svg" xmlns:xlink="http://www.w3.org/1999/xlink">
    <!-- Generator: Sketch 52.3 (67297) - http://www.bohemiancoding.com/sketch -->
    <title>full_size</title>
    <desc>Created with Sketch.</desc>
    <g id="Page-1" stroke="none" stroke-width="1" fill="none" fill-rule="evenodd">
        <g id="full_size" fill="#000000">
            <path d="M25.5,25 L25.5,16.42 C25.5,16.1438576 25.2761424,15.92 25,15.92 C24.8673831,15.9226258 24.7412441,15.9778396 24.6493457,16.073489 C24.5574472,16.1691384 24.5073211,16.2973842 24.51,16.43 L24.51,23.79 L14.38,13.67 C14.1839389,13.4739389 13.8660611,13.4739389 13.67,13.67 C13.4739389,13.8660611 13.4739389,14.1839389 13.67,14.38 L23.79,24.49 L16.43,24.49 C16.1538576,24.49 15.93,24.7138576 15.93,24.99 C15.93,25.2661424 16.1538576,25.49 16.43,25.49 L25.01,25.49 C25.072541,25.5041673 25.137459,25.5041673 25.2,25.49 C25.3204203,25.4366722 25.4166722,25.3404203 25.47,25.22 C25.4990874,25.1505576 25.5094322,25.0746951 25.5,25 Z" id="Path"></path>
            <path d="M2.21,1.51 L9.57,1.51 C9.84614237,1.51 10.07,1.28614237 10.07,1.01 C10.07,0.733857625 9.84614237,0.51 9.57,0.51 L1,0.5 C0.884171921,0.499801924 0.774248708,0.551099423 0.7,0.64 C0.649371333,0.682252086 0.611320595,0.737598614 0.59,0.8 C0.575832712,0.862541049 0.575832712,0.927458951 0.59,0.99 L0.59,9.57 C0.59,9.84614237 0.813857625,10.07 1.09,10.07 C1.2226169,10.0673742 1.34875587,10.0121604 1.44065433,9.91651103 C1.5325528,9.82086161 1.58267885,9.69261584 1.58,9.56 L1.58,2.2 L11.62,12.33 C11.7153883,12.4257197 11.8448664,12.479669 11.98,12.48 C12.1121181,12.4792306 12.2383269,12.4251411 12.33,12.33 C12.4246563,12.2361167 12.4778992,12.1083188 12.4778992,11.975 C12.4778992,11.8416812 12.4246563,11.7138833 12.33,11.62 L2.21,1.51 Z" id="Path"></path>
        </g>
    </g>
</svg>