<svg height='100px' width='100px'  fill="#000000" xmlns="http://www.w3.org/2000/svg" data-name="Layer 1" viewBox="0 0 100 100" x="0px" y="0px"><title>Artboard 21</title><path d="M62.5,62h0l0-8.58a.5.5,0,0,0-.5-.5h0a.5.5,0,0,0-.49.51l0,7.36L51.38,50.67a.5.5,0,0,0-.71.71L60.79,61.49l-7.36,0h0a.5.5,0,1,0,0,1l8.58,0h0a.43.43,0,0,0,.19,0,.53.53,0,0,0,.27-.27A.43.43,0,0,0,62.5,62Z"></path><path d="M39.21,38.51l7.36,0h0a.5.5,0,1,0,0-1L38,37.5h0a.39.39,0,0,0-.3.14.36.36,0,0,0-.11.16.43.43,0,0,0,0,.19h0l0,8.58a.5.5,0,0,0,.5.5h0a.5.5,0,0,0,.49-.51l0-7.36L48.62,49.33a.51.51,0,0,0,.36.15.49.49,0,0,0,.35-.15.5.5,0,0,0,0-.71Z"></path></svg>