<svg height='100px' width='100px'  fill="#000000" xmlns="http://www.w3.org/2000/svg" xmlns:xlink="http://www.w3.org/1999/xlink" version="1.1" x="0px" y="0px" viewBox="0 0 64 64" style="enable-background:new 0 0 64 64;" xml:space="preserve"><g><rect x="3" y="58" width="11" height="3"></rect><path d="M39,53H19c-1.654,0-3,1.346-3,3v5h26v-5C42,54.346,40.654,53,39,53z"></path><rect x="19" y="17" width="2" height="14"></rect><rect x="11" y="27" width="2" height="4"></rect><circle cx="32" cy="35" r="6"></circle><path d="M20.059,51h18.149c0.315-1.335,0.995-2.561,2.005-3.507l12.257-12.37c0.342-0.344,0.53-0.801,0.53-1.287   C53,32.82,52.18,32,51.171,32c-0.488,0-0.947,0.19-1.293,0.536l-7.828,7.828c-1.7,1.7-3.96,2.636-6.364,2.636H33h-4   C24.376,43,20.559,46.507,20.059,51z"></path><path d="M29,23h-2v5.765c0.602-0.484,1.274-0.881,2-1.176V23z"></path><path d="M37,3v20h24V3H37z M49,21c-4.411,0-8-3.589-8-8s3.589-8,8-8s8,3.589,8,8S53.411,21,49,21z"></path><path d="M43.09,14c0.478,2.833,2.942,5,5.91,5c1.294,0,2.49-0.416,3.471-1.115L48.586,14H43.09z"></path><path d="M50,7.09v5.496l3.885,3.885C54.584,15.49,55,14.294,55,13C55,10.033,52.833,7.569,50,7.09z"></path><path d="M48,7.09c-2.507,0.423-4.486,2.403-4.91,4.91H48V7.09z"></path><path d="M57,25H35V13H7v34h12.214c1.525-2.972,4.357-5.161,7.737-5.801C25.152,39.73,24,37.498,24,35c0-1.401,0.364-2.718,1-3.864   V21h6v6.069C31.328,27.028,31.661,27,32,27c4.411,0,8,3.589,8,8c0,2.252-0.939,4.287-2.442,5.742   c1.152-0.318,2.21-0.924,3.078-1.792l7.828-7.828C49.187,30.398,50.149,30,51.171,30C53.283,30,55,31.717,55,33.829   c0,1.024-0.394,1.981-1.109,2.702L43.516,47H57V25z M9,25h6v8H9V25z M15,35v2h-2v-2H15z M9,35h2v2H9V35z M19,45H9v-2h10V45z M19,41   H9v-2h10V41z M19,37h-2v-2h2V37z M23,33h-6V15h6V33z"></path><rect x="44" y="58" width="17" height="3"></rect></g></svg>