<svg height='100px' width='100px'  fill="#000000" xmlns="http://www.w3.org/2000/svg" xmlns:xlink="http://www.w3.org/1999/xlink" version="1.1" x="0px" y="0px" viewBox="0 0 64 64" style="enable-background:new 0 0 64 64;" xml:space="preserve"><path d="M29.657,12.783C30.496,11.751,31,10.436,31,9c0-3.317-2.683-6-6-6s-6,2.683-6,6s2.683,6,6,6  c1.093,0,2.113-0.296,2.995-0.805C26.198,13.137,25,11.195,25,9h2C27,10.72,28.097,12.211,29.657,12.783z"></path><path d="M33,57h5.127c0.444-1.724,2.013-3,3.873-3h11.206c-5.872-1.673-12.025-2.68-18.379-2.911L35.199,55H14.801l0.198-2.082  C10.867,53.853,6.852,55.1,3,56.668V61h27.184C30.072,60.686,30,60.352,30,60C30,58.346,31.346,57,33,57z"></path><path d="M42,56c-1.103,0-2,0.897-2,2v1h-7c-0.552,0-1,0.448-1,1s0.448,1,1,1h3h25v-4.332c-0.577-0.235-1.165-0.447-1.749-0.668H42z"></path><rect x="60" y="23" width="2" height="12"></rect><rect x="60" y="37" width="2" height="2"></rect><rect x="56" y="26" width="2" height="12"></rect><rect x="56" y="40" width="2" height="2"></rect><rect x="52" y="29" width="2" height="12"></rect><rect x="52" y="43" width="2" height="2"></rect><path d="M6.965,43.649c0.748,0.434,1.597,0.926,2.719,1.299c1.944,0.648,6.178,1.239,7.94,1.467l0.003,0L17,53h6l0.633-6.01  L23.74,47h0.272c0.72-0.01,1.486-0.064,2.338-0.165L27,53h6l-0.729-7.652l0.154-0.039l0.104-0.032  c3.158-1.176,6.826-3.228,7.418-4.953l0.202-0.59l-0.441-0.441c-1.483-1.484-3.182-6.608-4.546-10.726  c-1.224-3.694-2.09-6.222-2.927-7.567H37l1.14-1.14L48,10l-4-4l-9,9h-7l-3,7l-3-7h-5.053l-6.761,6.801  c-1.287,1.294-1.534,3.296-0.601,4.865l0.873,1.468L9.99,28.605v0.017c-1.052,1.174-1.634,2.502-2.197,3.79  c-0.465,1.062-0.904,2.066-1.591,2.985c-0.162,0.214-0.442,0.52-0.776,0.889C3.62,38.278,2,40.214,2,42v1.388l1.316-0.439  C4.863,42.436,5.654,42.891,6.965,43.649z M26.067,44.854C25.305,44.944,24.623,44.992,24,45l-0.158,0.005L25,34l1.141,10.836  L26.067,44.854z M37.756,40.075c-0.696,0.715-2.573,2.042-5.679,3.23L31,32v-9.079c0.678,1.493,1.506,3.991,2.263,6.275  C34.685,33.487,36.149,37.909,37.756,40.075z M24,25h2v2h-2V25z M6.908,37.629c0.385-0.425,0.704-0.78,0.894-1.03  c0.826-1.107,1.333-2.266,1.823-3.385c0.527-1.205,1.042-2.34,1.901-3.284L13.947,34L19,31l-4-6l4-4v10v1l-1.183,12.424  c-3.467-0.449-6.271-0.962-7.5-1.372c-0.929-0.31-1.651-0.729-2.35-1.133c-1.03-0.598-2.116-1.232-3.512-1.188  C5.094,39.631,6.249,38.356,6.908,37.629z"></path><path d="M60.507,7.813c-2.116-0.541-3.78-2.205-4.32-4.32c-0.051-0.2-0.322-0.2-0.374,0c-0.541,2.116-2.205,3.78-4.32,4.32  c-0.2,0.051-0.2,0.322,0,0.374c2.116,0.541,3.78,2.205,4.32,4.32c0.051,0.2,0.322,0.2,0.374,0c0.541-2.116,2.205-3.78,4.32-4.32  C60.708,8.136,60.708,7.864,60.507,7.813z"></path><path d="M55.507,20.813c-2.116-0.541-3.78-2.205-4.32-4.32c-0.051-0.2-0.322-0.2-0.374,0c-0.541,2.116-2.205,3.78-4.32,4.32  c-0.2,0.051-0.2,0.322,0,0.374c2.116,0.541,3.78,2.205,4.32,4.32c0.051,0.2,0.322,0.2,0.374,0c0.541-2.116,2.205-3.78,4.32-4.32  C55.708,21.136,55.708,20.864,55.507,20.813z"></path></svg>