<svg height='100px' width='100px'  fill="#000000" xmlns:x="http://ns.adobe.com/Extensibility/1.0/" xmlns:i="http://ns.adobe.com/AdobeIllustrator/10.0/" xmlns:graph="http://ns.adobe.com/Graphs/1.0/" xmlns="http://www.w3.org/2000/svg" xmlns:xlink="http://www.w3.org/1999/xlink" version="1.1" x="0px" y="0px" viewBox="0 0 100 100" style="enable-background:new 0 0 100 100;" xml:space="preserve"><g><g i:extraneous="self"><g><path d="M59.3,24c0,1.4-0.3,2.8-0.9,4.1c1.1,0,2.1-0.2,3.1-0.4c1.5,0.9,4,2.3,6.7,3c0.9,0.2,1.5-0.7,1-1.5c-1-1.3-1.7-3-2.1-4     c2.4-1.7,3.9-4,3.9-6.6c0-5.2-6-9.4-13.4-9.4c-3.9,0-7.5,1.2-9.9,3.1c2.5,0.5,4.7,1.5,6.6,2.8C57.5,17.3,59.3,20.6,59.3,24z"></path><path d="M33.6,30.6c-0.4,0.9-1.1,2.6-2.1,4c-0.5,0.7,0.1,1.7,1,1.5c2.8-0.7,5.3-2.1,6.7-3c1.2,0.3,2.6,0.4,3.9,0.4     c7.4,0,13.4-4.2,13.4-9.4c0-5.2-6-9.4-13.4-9.4c-7.4,0-13.4,4.2-13.4,9.4C29.7,26.5,31.2,28.9,33.6,30.6z M49.5,22.1     c1,0,1.9,0.8,1.9,1.9s-0.8,1.9-1.9,1.9S47.7,25,47.7,24S48.5,22.1,49.5,22.1z M43.2,22.1c1,0,1.9,0.8,1.9,1.9s-0.8,1.9-1.9,1.9     c-1,0-1.9-0.8-1.9-1.9S42.1,22.1,43.2,22.1z M36.8,22.1c1,0,1.9,0.8,1.9,1.9s-0.8,1.9-1.9,1.9c-1,0-1.9-0.8-1.9-1.9     S35.8,22.1,36.8,22.1z"></path><circle cx="17.8" cy="35.8" r="7.8"></circle><path d="M36.3,69.8c-0.5-1.9-2.1-3.2-4-3.2h-7.2V54.2l3.3,1.4c0.4,0.2,0.9,0.3,1.3,0.3h7c1.8,0,3.3-1.5,3.3-3.3     c0-1.8-1.5-3.3-3.3-3.3h-6.3c0,0-7-3-7.6-3.2c-0.6-0.2-1.2-0.4-1.9-0.4h-6.4c-2.3,0-4.1,1.9-4.1,4.1v21.1c0,2.3,1.9,4.1,4.1,4.1     H29l3,12.4c0.5,1.9,2.2,3.2,4,3.2c0.3,0,0.7,0,1-0.1c2.2-0.5,3.6-2.8,3-5L36.3,69.8z"></path><circle cx="82.2" cy="35.8" r="7.8"></circle><path d="M89.6,70.7V49.7c0-2.3-1.9-4.1-4.1-4.1h-6.4c-0.7,0-1.3,0.2-1.9,0.4c-0.6,0.2-7.6,3.2-7.6,3.2h-6.3     c-1.8,0-3.3,1.5-3.3,3.3c0,1.8,1.5,3.3,3.3,3.3h7c0.4,0,0.9-0.1,1.3-0.3l3.3-1.4v12.4h-7.2c-1.9,0-3.6,1.3-4,3.2l-3.8,15.5     c-0.5,2.2,0.8,4.5,3,5c0.3,0.1,0.7,0.1,1,0.1c1.9,0,3.6-1.3,4-3.2l3-12.4h14.4C87.7,74.9,89.6,73,89.6,70.7z"></path><path d="M71.7,61.3c0-1.3-1-2.3-2.3-2.3H30.6c-1.3,0-2.3,1-2.3,2.3s1,2.3,2.3,2.3h17.1v24.8c0,1.3,1,2.3,2.3,2.3s2.3-1,2.3-2.3     V63.5h17.1C70.7,63.5,71.7,62.5,71.7,61.3z"></path><path d="M23.5,78.8h-9.1c-4.3,0-7.8-3.5-7.8-7.8V56.1c0-1.1-0.9-2.1-2.1-2.1s-2.1,0.9-2.1,2.1V71c0,6.5,5.3,11.9,11.8,11.9v3.7     h-1.9c-1.1,0-2.1,0.9-2.1,2.1s0.9,2.1,2.1,2.1h8c1.1,0,2.1-0.9,2.1-2.1s-0.9-2.1-2.1-2.1h-1.9V83h5.1c1.1,0,2.1-0.9,2.1-2.1     C25.6,79.7,24.7,78.8,23.5,78.8z"></path><path d="M95.4,54c-1.1,0-2.1,0.9-2.1,2.1V71c0,4.3-3.5,7.8-7.8,7.8h-9.1c-1.1,0-2.1,0.9-2.1,2.1c0,1.1,0.9,2.1,2.1,2.1h5.1v3.7     h-1.9c-1.1,0-2.1,0.9-2.1,2.1s0.9,2.1,2.1,2.1h8c1.1,0,2.1-0.9,2.1-2.1s-0.9-2.1-2.1-2.1h-1.9V83c6.5-0.1,11.8-5.4,11.8-11.9     V56.1C97.5,54.9,96.6,54,95.4,54z"></path></g></g></g></svg>