<svg height='100px' width='100px'  fill="#000000" xmlns:x="http://ns.adobe.com/Extensibility/1.0/" xmlns:i="http://ns.adobe.com/AdobeIllustrator/10.0/" xmlns:graph="http://ns.adobe.com/Graphs/1.0/" xmlns="http://www.w3.org/2000/svg" xmlns:xlink="http://www.w3.org/1999/xlink" version="1.1" x="0px" y="0px" viewBox="0 0 100 100" style="enable-background:new 0 0 100 100;" xml:space="preserve"><g><g i:extraneous="self"><g><path d="M5273.1,2400.1v-2c0-2.8-5-4-9.7-4s-9.7,1.3-9.7,4v2c0,1.8,0.7,3.6,2,4.9l5,4.9c0.3,0.3,0.4,0.6,0.4,1v6.4     c0,0.4,0.2,0.7,0.6,0.8l2.9,0.9c0.5,0.1,1-0.2,1-0.8v-7.2c0-0.4,0.2-0.7,0.4-1l5.1-5C5272.4,2403.7,5273.1,2401.9,5273.1,2400.1z      M5263.4,2400c-4.8,0-7.4-1.3-7.5-1.8v0c0.1-0.5,2.7-1.8,7.5-1.8c4.8,0,7.3,1.3,7.5,1.8C5270.7,2398.7,5268.2,2400,5263.4,2400z"></path><path d="M5268.4,2410.3c-0.6,0-1,0.4-1,1c0,0.6,0.4,1,1,1h4.3c0.6,0,1-0.4,1-1c0-0.6-0.4-1-1-1H5268.4z"></path><path d="M5272.7,2413.7h-4.3c-0.6,0-1,0.4-1,1c0,0.6,0.4,1,1,1h4.3c0.6,0,1-0.4,1-1C5273.7,2414.1,5273.3,2413.7,5272.7,2413.7z"></path><path d="M5272.7,2417h-4.3c-0.6,0-1,0.4-1,1c0,0.6,0.4,1,1,1h4.3c0.6,0,1-0.4,1-1C5273.7,2417.5,5273.3,2417,5272.7,2417z"></path></g><g><path d="M35.9,12.9v5.2c0,2.6,6.3,4.8,14.1,4.8c7.8,0,14.2-2.2,14.2-4.8v-5.2c-3.6,2.1-9.1,3-14.2,3S39.4,15,35.9,12.9z"></path><ellipse cx="50" cy="7.3" rx="14.2" ry="4.8"></ellipse><path d="M88.4,79.8v-4.2c0-3.4-1.7-6.6-4.7-8.4l-5-3.1c-1.3-0.8-2.1-2.3-2.1-3.8v-4.6c0-5.5-4.4-9.9-9.9-9.9H52.7V33.5     c6.5-0.4,11.5-2.3,11.5-4.7v-5.2c-3.6,2.1-9.1,3-14.2,3s-10.6-0.8-14.1-2.9v5.2c0,2.3,4.9,4.2,11.5,4.7v12.2H33.3     c-5.5,0-9.9,4.4-9.9,9.9v4.6c0,1.6-0.8,3-2.1,3.8l-5,3.1c-2.9,1.8-4.7,5-4.7,8.4v4.2c-2.6,1.1-4.4,3.6-4.4,6.5c0,3.9,3.2,7,7,7     c3.9,0,7-3.2,7-7c0-2.9-1.8-5.5-4.4-6.5v-4.2c0-1.6,0.8-3,2.1-3.8l5-3.1c2.9-1.8,4.7-5,4.7-8.4v-4.6c0-2.5,2-4.5,4.5-4.5h14.1     v11.6l-7.1,4.4c-2.9,1.8-4.7,5-4.7,8.4v8.4c-2.6,1.1-4.4,3.6-4.4,6.5c0,3.9,3.2,7,7,7s7-3.2,7-7c0-2.9-1.8-5.5-4.4-6.5v-8.4     c0-1.6,0.8-3,2.1-3.8l7-4.3l7.3,4.5c1.3,0.8,2.2,2.3,2.2,3.9v8.2c-2.6,1.1-4.4,3.6-4.4,6.5c0,3.9,3.2,7,7,7c3.9,0,7-3.2,7-7     c0-2.9-1.8-5.5-4.4-6.5v-8.2c0-3.4-1.8-6.7-4.7-8.4l-7.4-4.5V51.1h14.1c2.5,0,4.5,2,4.5,4.5v4.6c0,3.4,1.7,6.6,4.7,8.4l5,3.1     c1.3,0.8,2.1,2.3,2.1,3.8v4.2c-2.6,1.1-4.4,3.6-4.4,6.5c0,3.9,3.2,7,7,7c3.9,0,7-3.2,7-7C92.8,83.4,91,80.9,88.4,79.8z"></path></g></g></g></svg>