<svg height='100px' width='100px'  fill="#000000" xmlns="http://www.w3.org/2000/svg" xmlns:xlink="http://www.w3.org/1999/xlink" version="1.1" x="0px" y="0px" viewBox="0 0 64 64" style="enable-background:new 0 0 64 64;" xml:space="preserve"><path d="M26,49.583V54c0,0.379,0.214,0.725,0.553,0.895L28,55.618V61c0,0.552,0.447,1,1,1h6c0.553,0,1-0.448,1-1v-5.382l1.447-0.724  C37.786,54.725,38,54.379,38,54v-4.417c0-1.49-0.915-2.771-2.212-3.311C35.928,45.865,36,45.436,36,45c0-2.206-1.794-4-4-4  s-4,1.794-4,4c0,0.436,0.072,0.865,0.212,1.273C26.915,46.812,26,48.093,26,49.583z M28,49.583C28,48.71,28.711,48,29.584,48h0.194  c0.395,0,0.753-0.232,0.913-0.593c0.161-0.361,0.095-0.782-0.17-1.076C30.283,46.066,30,45.621,30,45c0-1.103,0.897-2,2-2  s2,0.897,2,2c0,0.621-0.283,1.066-0.521,1.331c-0.265,0.293-0.331,0.715-0.17,1.076C33.469,47.768,33.827,48,34.222,48h0.194  C35.289,48,36,48.71,36,49.583v3.798l-1.447,0.724C34.214,54.275,34,54.621,34,55v5h-4v-5c0-0.379-0.214-0.725-0.553-0.895  L28,53.382V49.583z"></path><rect x="31" y="49" width="2" height="3"></rect><path d="M26,12c-0.442,0-0.833,0.291-0.959,0.715s0.042,0.881,0.413,1.123l3.076,2.004l-1.193,3.862  c-0.129,0.416,0.026,0.867,0.383,1.116c0.357,0.249,0.834,0.239,1.18-0.026L32,18.425l3.101,2.369  C35.279,20.931,35.494,21,35.708,21c0.2,0,0.4-0.06,0.572-0.18c0.356-0.249,0.512-0.7,0.383-1.116l-1.193-3.862l3.076-2.004  c0.371-0.242,0.539-0.698,0.413-1.123S38.442,12,38,12h-3.828l-1.21-4.272C32.84,7.297,32.447,7,32,7s-0.84,0.297-0.962,0.728  L29.828,12H26z M31.546,13.272L32,11.67l0.454,1.603C32.576,13.703,32.969,14,33.416,14h1.218l-0.888,0.579  c-0.374,0.244-0.541,0.707-0.409,1.133l0.492,1.594l-1.222-0.934c-0.18-0.137-0.394-0.206-0.607-0.206s-0.428,0.068-0.607,0.206  l-1.222,0.934l0.492-1.594c0.132-0.427-0.035-0.889-0.409-1.133L29.366,14h1.218C31.031,14,31.424,13.703,31.546,13.272z"></path><rect x="31" y="2" width="2" height="3"></rect><rect x="42" y="13" width="3" height="2"></rect><rect x="19" y="13" width="3" height="2"></rect><rect x="39.132" y="20.561" transform="matrix(0.7071 -0.7071 0.7071 0.7071 -3.8448 34.8389)" width="2" height="3"></rect><rect x="22.868" y="4.368" transform="matrix(0.7071 -0.7071 0.7071 0.7071 2.8414 18.5961)" width="2" height="3"></rect><rect x="22.368" y="21.061" transform="matrix(0.7071 -0.7071 0.7071 0.7071 -8.6083 23.3387)" width="3" height="2"></rect><rect x="38.632" y="4.868" transform="matrix(0.7071 -0.7071 0.7071 0.7071 7.6049 30.0962)" width="3" height="2"></rect><rect x="31" y="24" width="2" height="3"></rect><path d="M29.707,33.707L31,32.414V39h2v-6.586l1.293,1.293l1.414-1.414l-3-3c-0.391-0.391-1.023-0.391-1.414,0l-3,3L29.707,33.707z"></path><path d="M43.293,53.293l-3,3c-0.391,0.391-0.391,1.023,0,1.414l3,3l1.414-1.414L43.414,58H53c0.553,0,1-0.448,1-1v-4h-2v3h-8.586  l1.293-1.293L43.293,53.293z"></path><path d="M9,53v4c0,0.552,0.447,1,1,1h10.586l-1.293,1.293l1.414,1.414l3-3c0.391-0.391,0.391-1.023,0-1.414l-3-3l-1.414,1.414  L20.586,56H11v-3H9z"></path><path d="M61.287,38.607l-0.765-0.229c-0.101-0.289-0.217-0.57-0.349-0.843l0.38-0.705c0.179-0.332,0.155-0.736-0.061-1.045  c-0.619-0.89-1.386-1.657-2.277-2.279c-0.309-0.215-0.713-0.24-1.046-0.06l-0.705,0.379c-0.273-0.132-0.555-0.248-0.843-0.348  l-0.229-0.765C55.266,32.29,54.876,32,54.435,32h-2.869c-0.441,0-0.831,0.29-0.958,0.712l-0.229,0.765  c-0.288,0.1-0.569,0.216-0.843,0.348l-0.705-0.379c-0.333-0.18-0.736-0.155-1.045,0.06c-0.892,0.621-1.658,1.388-2.278,2.279  c-0.216,0.309-0.239,0.713-0.061,1.045l0.407,0.756l-0.32,0.775l-0.82,0.246C44.29,38.734,44,39.124,44,39.565v2.869  c0,0.441,0.29,0.831,0.713,0.958l0.765,0.229c0.101,0.289,0.217,0.57,0.349,0.843l-0.38,0.705c-0.179,0.332-0.155,0.736,0.061,1.046  c0.62,0.891,1.387,1.657,2.278,2.278c0.309,0.215,0.712,0.239,1.045,0.061l0.705-0.379c0.273,0.132,0.555,0.248,0.843,0.348  l0.229,0.765C50.734,49.71,51.124,50,51.565,50h2.869c0.441,0,0.831-0.29,0.958-0.712l0.229-0.765  c0.288-0.1,0.569-0.216,0.843-0.348l0.705,0.379c0.333,0.18,0.736,0.155,1.045-0.06c0.892-0.621,1.658-1.388,2.278-2.279  c0.216-0.309,0.239-0.713,0.061-1.045l-0.38-0.705c0.132-0.273,0.248-0.555,0.349-0.843l0.765-0.229  C61.71,43.266,62,42.876,62,42.435v-2.869C62,39.124,61.71,38.734,61.287,38.607z M60,41.69l-0.562,0.168  c-0.331,0.1-0.588,0.363-0.678,0.697c-0.136,0.5-0.333,0.977-0.585,1.415c-0.173,0.3-0.179,0.668-0.015,0.974l0.327,0.608  c-0.282,0.34-0.595,0.654-0.936,0.937l-0.608-0.327c-0.303-0.165-0.672-0.159-0.973,0.014c-0.44,0.253-0.917,0.45-1.414,0.584  c-0.334,0.09-0.598,0.346-0.697,0.678L53.69,48H52.31l-0.169-0.563c-0.1-0.332-0.363-0.588-0.697-0.678  c-0.497-0.134-0.974-0.331-1.414-0.584c-0.301-0.173-0.668-0.178-0.973-0.014l-0.607,0.327c-0.341-0.283-0.654-0.596-0.937-0.937  l0.327-0.607c0.164-0.305,0.158-0.673-0.015-0.973c-0.253-0.439-0.449-0.915-0.585-1.415c-0.09-0.333-0.346-0.597-0.678-0.697  L46,41.69v-1.38l0.562-0.168c0.288-0.086,0.522-0.298,0.637-0.576l0.684-1.653c0.115-0.277,0.099-0.592-0.043-0.856l-0.327-0.608  c0.282-0.34,0.595-0.654,0.936-0.937l0.608,0.327c0.304,0.165,0.673,0.16,0.973-0.014c0.439-0.253,0.915-0.45,1.414-0.584  c0.334-0.09,0.598-0.346,0.697-0.678L52.31,34h1.381l0.169,0.563c0.1,0.332,0.363,0.588,0.697,0.678  c0.497,0.134,0.974,0.331,1.414,0.584c0.301,0.173,0.67,0.178,0.973,0.014l0.607-0.327c0.342,0.283,0.654,0.596,0.937,0.937  l-0.327,0.607c-0.164,0.305-0.158,0.673,0.015,0.974c0.253,0.438,0.449,0.914,0.584,1.414c0.091,0.334,0.348,0.598,0.679,0.697  L60,40.31V41.69z"></path><path d="M53,37c-2.206,0-4,1.794-4,4s1.794,4,4,4s4-1.794,4-4S55.206,37,53,37z M53,43c-1.103,0-2-0.897-2-2s0.897-2,2-2  s2,0.897,2,2S54.103,43,53,43z"></path><path d="M3,51h5c0.553,0,1-0.448,1-1v-2c0-0.551,0.448-1,1-1s1,0.449,1,1v2c0,0.552,0.447,1,1,1h5c0.553,0,1-0.448,1-1v-5h1  c0.882,0,1.715-0.385,2.286-1.058c0.571-0.671,0.816-1.561,0.674-2.439C21.728,40.076,20.408,39,18.893,39H18v-5  c0-0.552-0.447-1-1-1h-5c-0.553,0-1,0.448-1,1v2c0,0.551-0.448,1-1,1s-1-0.449-1-1v-2c0-0.552-0.447-1-1-1H3c-0.553,0-1,0.448-1,1  v16C2,50.552,2.447,51,3,51z M4,35h3v1c0,1.654,1.346,3,3,3s3-1.346,3-3v-1h3v5c0,0.552,0.447,1,1,1h1.893  c0.538,0,1.018,0.362,1.093,0.825c0.05,0.303-0.029,0.595-0.223,0.822C19.572,42.872,19.294,43,19,43h-2c-0.553,0-1,0.448-1,1v5h-3  v-1c0-1.654-1.346-3-3-3s-3,1.346-3,3v1H4V35z"></path></svg>