<svg height='100px' width='100px'  fill="#000000" xmlns="http://www.w3.org/2000/svg" xmlns:xlink="http://www.w3.org/1999/xlink" version="1.1" x="0px" y="0px" viewBox="0 0 64 64" style="enable-background:new 0 0 64 64;" xml:space="preserve"><rect x="57" y="37" width="5" height="14"></rect><rect x="2" y="37" width="5" height="14"></rect><path d="M24.858,43h3.062c-0.17-1.183-0.636-2.269-1.322-3.184l-2.165,2.165C24.62,42.296,24.764,42.637,24.858,43z"></path><path d="M20,40.142V37.08c-1.183,0.17-2.269,0.636-3.184,1.322l2.165,2.165C19.296,40.38,19.637,40.236,20,40.142z"></path><path d="M25.184,38.402C24.269,37.716,23.183,37.25,22,37.08v3.062c0.363,0.094,0.704,0.238,1.019,0.425L25.184,38.402z"></path><path d="M17.567,41.981l-2.165-2.165C14.716,40.731,14.25,41.817,14.08,43h3.062C17.236,42.637,17.38,42.296,17.567,41.981z"></path><path d="M47.184,38.402C46.269,37.716,45.183,37.25,44,37.08v3.062c0.363,0.094,0.704,0.238,1.019,0.425L47.184,38.402z"></path><path d="M17.567,46.019c-0.186-0.316-0.33-0.656-0.425-1.019H14.08c0.17,1.183,0.636,2.269,1.322,3.184L17.567,46.019z"></path><path d="M16.816,49.598c0.915,0.686,2.001,1.151,3.184,1.322v-3.062c-0.363-0.094-0.704-0.238-1.019-0.425L16.816,49.598z"></path><circle cx="21" cy="44" r="2"></circle><path d="M22,47.858v3.062c1.183-0.17,2.269-0.636,3.184-1.322l-2.165-2.165C22.704,47.62,22.363,47.764,22,47.858z"></path><path d="M24.433,46.019l2.165,2.165c0.686-0.915,1.151-2.001,1.322-3.184h-3.062C24.764,45.363,24.62,45.704,24.433,46.019z"></path><path d="M44,47.858v3.062c1.183-0.17,2.269-0.636,3.184-1.322l-2.165-2.165C44.704,47.62,44.363,47.764,44,47.858z"></path><path d="M46.433,46.019l2.165,2.165c0.686-0.915,1.151-2.001,1.322-3.184h-3.062C46.764,45.363,46.62,45.704,46.433,46.019z"></path><path d="M46.858,43h3.062c-0.17-1.183-0.636-2.269-1.322-3.184l-2.165,2.165C46.62,42.296,46.764,42.637,46.858,43z"></path><circle cx="43" cy="44" r="2"></circle><path d="M9,62h46V31H9V62z M29,57h-2v-2h2V57z M37,57h-2v-2h2V57z M43,35c4.963,0,9,4.037,9,9s-4.037,9-9,9s-9-4.037-9-9  S38.037,35,43,35z M31,55h2v2h-2V55z M21,35c4.963,0,9,4.037,9,9s-4.037,9-9,9s-9-4.037-9-9S16.037,35,21,35z"></path><path d="M39.567,46.019c-0.186-0.316-0.33-0.656-0.425-1.019H36.08c0.17,1.183,0.636,2.269,1.322,3.184L39.567,46.019z"></path><path d="M38.816,49.598c0.915,0.686,2.001,1.151,3.184,1.322v-3.062c-0.363-0.094-0.704-0.238-1.019-0.425L38.816,49.598z"></path><path d="M39.567,41.981l-2.165-2.165C36.716,40.731,36.25,41.817,36.08,43h3.062C39.236,42.637,39.38,42.296,39.567,41.981z"></path><path d="M42,40.142V37.08c-1.183,0.17-2.269,0.636-3.184,1.322l2.165,2.165C41.296,40.38,41.637,40.236,42,40.142z"></path><polygon points="27,13 22,2 17,13 21,13 21,18.414 25,22.414 25,26.586 23.707,25.293 22.293,26.707 26,30.414 29.707,26.707   28.293,25.293 27,26.586 27,21.586 23,17.586 23,13 "></polygon><path d="M7,14c-2.761,0-5,2.239-5,5s2.239,5,5,5c2.419,0,4.436-1.718,4.899-4H16v6.586l-1.293-1.293l-1.414,1.414L17,30.414  l3.707-3.707l-1.414-1.414L18,26.586V18h-6.101C11.436,15.718,9.419,14,7,14z"></path><polygon points="62,15 57,12 52,15 52,17 44,17 44,26.586 42.707,25.293 41.293,26.707 45,30.414 48.707,26.707 47.293,25.293   46,26.586 46,19 52,19 52,21 57,24 62,21 "></polygon><polygon points="34,20.586 34,26.586 32.707,25.293 31.293,26.707 35,30.414 38.707,26.707 37.293,25.293 36,26.586 36,21.414   40,17.414 40,12 44,12 44,2 34,2 34,12 38,12 38,16.586 "></polygon></svg>