<svg height='100px' width='100px'  fill="#000000" xmlns="http://www.w3.org/2000/svg" xmlns:xlink="http://www.w3.org/1999/xlink" version="1.1" x="0px" y="0px" viewBox="-0.0002441 0 208 176" enable-background="new -0.0002441 0 208 176" xml:space="preserve"><path d="M156.0661621,120.5859375c0-16.4824219-6.6542969-28.6347656-20.921875-38.2294922V76.684082  c0-6.6025391-5.3720703-12.0869141-12.0849609-12.2270508l-39.0068359-0.0078125  c-6.7460938,0-12.2353516,5.4882813-12.2353516,12.2348633v9.4819336  c-9.0234375-7.5014648-13.1611328-16.5908203-13.1611328-28.5449219c0-11.9326172,4.6220703-21.9960938,13.1611328-29.0996094  v14.5864258c0,6.7460938,5.4892578,12.2358398,12.2353516,12.2358398h38.8554688  c6.7480469,0,12.2363281-5.4897461,12.2363281-12.2358398V19.7729492c0-6.6020508-5.3720703-12.0864258-12.0849609-12.2270508  L84.0524902,7.5385742c-6.4960938,0-11.8105469,5.0927734-12.1982422,11.4931641  C58.2819824,27.6020508,50.8952637,41.050293,50.8952637,57.6210938c0,16.3862305,6.6933594,28.6337891,20.921875,38.2080078  v4.1894531c0,6.7460938,5.4892578,12.2363281,12.2353516,12.2363281h38.8554688  c6.7480469,0,12.2363281-5.4902344,12.2363281-12.2363281v-7.9804688  c8.9462891,7.4726563,13.1611328,16.6650391,13.1611328,28.5478516c0,11.8925781-4.609375,21.8896484-13.1611328,29.0058594  v-15.9960938c0-6.6035156-5.3720703-12.0878906-12.0849609-12.2275391l-39.0068359-0.0068359  c-6.7460938,0-12.2353516,5.4863281-12.2353516,12.234375v23.3349609c0,6.7451172,5.4892578,12.234375,12.2353516,12.234375  h38.8554688c5.8759766,0,10.7949219-4.1630859,11.9667969-9.6962891  C148.5925293,150.9580078,156.0661621,137.3720703,156.0661621,120.5859375z M82.1647949,19.7729492  c0-1.0405273,0.8466797-1.887207,1.8867188-1.887207l38.8974609,0.0063477  c1.0351563,0.0214844,1.8476563,0.8476563,1.8476563,1.8808594v23.3349609c0,1.0405273-0.8476563,1.8881836-1.8886719,1.8881836  H84.0524902c-1.0410156,0-1.8876953-0.8476563-1.8876953-1.8881836V19.7729492z M53.4821777,57.6210938  c0-15.0273438,6.4511719-27.3339844,18.3349609-35.4580078v3.0629883  c-10.1992188,7.6303711-15.7480469,18.8911133-15.7480469,32.3950195c0,13.5429688,4.9287109,23.6264648,15.7480469,31.8662109  v3.1943359C59.3571777,83.7661133,53.4821777,72.4892578,53.4821777,57.6210938z M124.7966309,100.0185547  c0,1.0410156-0.8476563,1.8886719-1.8886719,1.8886719H84.0524902c-1.0410156,0-1.8876953-0.8476563-1.8876953-1.8886719V76.684082  c0-1.0410156,0.8466797-1.887207,1.8867188-1.887207l38.8974609,0.0063477  c1.0351563,0.0214844,1.8476563,0.8476563,1.8476563,1.8808594V100.0185547z M124.7966309,156.9306641  c0,1.0400391-0.8476563,1.8867188-1.8886719,1.8867188H84.0524902c-1.0410156,0-1.8876953-0.8466797-1.8876953-1.8867188  v-23.3349609c0-1.0410156,0.8466797-1.8876953,1.8867188-1.8876953l38.8974609,0.0058594  c1.0351563,0.0224609,1.8476563,0.8486328,1.8476563,1.8818359V156.9306641z M135.1442871,156.1855469v-3.2841797  c10.2197266-7.6494141,15.7480469-18.84375,15.7480469-32.3154297c0-13.4472656-5.0273438-23.6591797-15.7480469-31.8652344  v-3.2089844c12.4863281,8.9101563,18.3349609,20.1015625,18.3349609,35.0742188  C153.479248,135.7275391,147.0192871,148.1015625,135.1442871,156.1855469z"></path></svg>