<svg height='100px' width='100px'  fill="#000000" xmlns="http://www.w3.org/2000/svg" xmlns:xlink="http://www.w3.org/1999/xlink" version="1.1" x="0px" y="0px" viewBox="0 0 100.018 258.825" style="enable-background:new 0 0 100.018 258.825;" xml:space="preserve"><g><path d="M8.572,168.276c0.16,0,0.32-0.004,0.481-0.014c4.41-0.258,7.775-4.045,7.518-8.454c-0.395-6.652-0.572-12.711-0.572-18.223   c-0.031-24.214,3.498-37.818,6.967-44.917v32.853v18.939v98.001c0,6.83,5.537,12.363,12.363,12.363   c6.828,0,12.365-5.533,12.365-12.363v-90.272h4.635v90.272c0,6.83,5.537,12.363,12.363,12.363c6.828,0,12.365-5.533,12.365-12.363   v-98.001v-18.939V96.713c0.592,1.215,1.189,2.61,1.779,4.236c2.818,7.813,5.188,20.631,5.178,40.639   c0.004,5.514-0.174,11.57-0.56,18.225c-0.26,4.411,3.107,8.196,7.521,8.452c0.156,0.008,0.315,0.014,0.471,0.014   c4.205,0,7.732-3.281,7.982-7.534c0.402-6.934,0.588-13.303,0.59-19.156C99.977,111.407,95.154,94.7,88.58,84.657   c-3.281-4.987-7.125-8.185-10.676-9.956c-2.316-1.167-4.443-1.718-6.137-1.962C71,72.483,70.182,72.34,69.328,72.34H30.693   c-0.852,0-1.67,0.143-2.435,0.398c-1.695,0.244-3.822,0.795-6.147,1.964c-5.377,2.666-11.176,8.501-15.234,18.84   C2.772,103.922,0.012,118.928,0,141.586c0,5.857,0.19,12.227,0.596,19.158C0.846,164.995,4.369,168.276,8.572,168.276z"></path><path d="M62.473,35.692c0,2.194,5.422,3.974,12.111,3.974c6.686,0,12.107-1.779,12.107-3.974c0-0.134-0.092-0.259-0.262-0.376   L76.01,5.018l2.039-0.742L76.492,0L51.83,8.975V3.641h-3.639v6.659l-26.219,9.542l1.557,4.276l1.066-0.388l-10.008,29.09   c-0.166,0.116-0.258,0.241-0.258,0.373c0,2.194,5.422,3.974,12.109,3.974c6.687,0,12.109-1.779,12.109-3.974   c0-0.132-0.092-0.257-0.258-0.373L27.873,22.537l20.318-7.395v45.859c-8,0.218-14.221,1.854-14.221,3.841   c0,2.137,32.08,2.137,32.08,0c0-1.987-6.219-3.622-14.221-3.84V13.817l20.916-7.612L62.733,35.319   C62.566,35.436,62.473,35.56,62.473,35.692z M16.945,52.126L26.44,24.52l9.496,27.607C31.281,51.355,21.602,51.355,16.945,52.126z    M74.582,7.021l9.496,27.605c-4.656-0.771-14.338-0.771-18.992,0L74.582,7.021z"></path></g></svg>