<svg height='100px' width='100px'  fill="#000000" xmlns="http://www.w3.org/2000/svg" data-name="Layer 1" viewBox="0 0 96 96" x="0px" y="0px"><title>Artboard 57</title><path d="M48,18a8,8,0,1,0-8-8A8,8,0,0,0,48,18ZM48,6a4,4,0,1,1-4,4A4,4,0,0,1,48,6Z"></path><path d="M55.29,17H53.81a2,2,0,0,0-1.4.57l-4.28,4.17-4.58-4.21A2,2,0,0,0,42.2,17H40.71A5.63,5.63,0,0,0,35,22.54V34.42A3.62,3.62,0,0,0,38.65,38h18.7A3.62,3.62,0,0,0,61,34.42V22.54A5.63,5.63,0,0,0,55.29,17ZM57,34H39V22.54A1.63,1.63,0,0,1,40.71,21h.71l5.39,5a2,2,0,0,0,2.76,0l5-4.93h.67A1.63,1.63,0,0,1,57,22.54Z"></path><path d="M48,74a8,8,0,1,0-8-8A8,8,0,0,0,48,74Zm0-12a4,4,0,1,1-4,4A4,4,0,0,1,48,62Z"></path><path d="M55.29,73H53.81a2,2,0,0,0-1.4.57l-4.28,4.17-4.58-4.21A2,2,0,0,0,42.2,73H40.71A5.63,5.63,0,0,0,35,78.54V90.42A3.62,3.62,0,0,0,38.65,94h18.7A3.62,3.62,0,0,0,61,90.42V78.54A5.63,5.63,0,0,0,55.29,73ZM57,90H39V78.54A1.63,1.63,0,0,1,40.71,77h.71l5.39,5a2,2,0,0,0,2.76,0l5-4.93h.67A1.63,1.63,0,0,1,57,78.54Z"></path><path d="M73,37a8,8,0,1,0,8-8A8,8,0,0,0,73,37Zm12,0a4,4,0,1,1-4-4A4,4,0,0,1,85,37Z"></path><path d="M88.29,44H86.81a2,2,0,0,0-1.4.57l-4.28,4.17-4.58-4.21A2,2,0,0,0,75.2,44H73.71A5.63,5.63,0,0,0,68,49.54V61.42A3.62,3.62,0,0,0,71.65,65h18.7A3.62,3.62,0,0,0,94,61.42V49.54A5.63,5.63,0,0,0,88.29,44ZM90,61H72V49.54A1.63,1.63,0,0,1,73.71,48h.71l5.39,5a2,2,0,0,0,2.76,0L87.62,48h.67A1.63,1.63,0,0,1,90,49.54Z"></path><path d="M15,45a8,8,0,1,0-8-8A8,8,0,0,0,15,45Zm0-12a4,4,0,1,1-4,4A4,4,0,0,1,15,33Z"></path><path d="M28,61.42V49.54A5.63,5.63,0,0,0,22.29,44H20.81a2,2,0,0,0-1.4.57l-4.28,4.17-4.58-4.21A2,2,0,0,0,9.2,44H7.71A5.63,5.63,0,0,0,2,49.54V61.42A3.62,3.62,0,0,0,5.65,65h18.7A3.62,3.62,0,0,0,28,61.42ZM24,61H6V49.54A1.63,1.63,0,0,1,7.71,48h.71l5.39,5a2,2,0,0,0,2.76,0L21.62,48h.67A1.63,1.63,0,0,1,24,49.54Z"></path><path d="M86.45,67.45a2,2,0,0,0-2.73.75A41.32,41.32,0,0,1,70.93,82l-1.39-2.6-5.29,8.45,10,.36-1.41-2.66A45.44,45.44,0,0,0,87.2,70.18,2,2,0,0,0,86.45,67.45Z"></path><path d="M31.31,85.49a41.29,41.29,0,0,1-15-11.41l2.46-1.63L9.89,68l.61,10L13,76.3A45.33,45.33,0,0,0,29.69,89.15a2.1,2.1,0,0,0,.81.17,2,2,0,0,0,.81-3.83Z"></path><path d="M25.08,9.26A45.51,45.51,0,0,0,9.94,23.91a2,2,0,0,0,.62,2.76,2,2,0,0,0,2.76-.62A41.45,41.45,0,0,1,26.78,12.9L28,15.57l5.7-8.18L23.8,6.54Z"></path><path d="M60.84,9a41.12,41.12,0,0,1,16,9.86l-2.28,1.87,9.32,3.53-1.6-9.84L80,16.34A45.17,45.17,0,0,0,62.09,5.22,2,2,0,0,0,60.84,9Z"></path></svg>