<svg height='100px' width='100px'  fill="#000000" xmlns="http://www.w3.org/2000/svg" xmlns:xlink="http://www.w3.org/1999/xlink" version="1.1" x="0px" y="0px" viewBox="0 0 100 100" enable-background="new 0 0 100 100" xml:space="preserve"><path d="M23.029,51.09c-2.022,0-3.667,1.458-3.667,3.25s1.645,3.25,3.667,3.25c2.021,0,3.667-1.458,3.667-3.25  S25.051,51.09,23.029,51.09z M23.029,55.59c-0.904,0-1.667-0.572-1.667-1.25s0.763-1.25,1.667-1.25c0.903,0,1.667,0.572,1.667,1.25  S23.933,55.59,23.029,55.59z M82.694,44.037c-1.706,0-3.094,1.183-3.094,2.638s1.388,2.638,3.094,2.638s3.094-1.184,3.094-2.638  S84.4,44.037,82.694,44.037z M82.694,47.313c-0.616,0-1.094-0.343-1.094-0.638s0.478-0.638,1.094-0.638s1.094,0.343,1.094,0.638  S83.31,47.313,82.694,47.313z M28.152,38.491c0-2.503-2.121-4.539-4.728-4.539s-4.728,2.036-4.728,4.539c0,0.003,0,0.007,0,0.011  c-1.213,0.899-2.027,2.201-2.284,3.647c-1.31,0.54-2.2,1.794-2.2,3.212c0,1.927,1.628,3.496,3.628,3.496  c0.651,0,1.285-0.171,1.841-0.49c0.853,0.413,1.792,0.629,2.752,0.629c3.377,0,6.125-2.631,6.125-5.865  c0-1.011-0.272-1.991-0.792-2.869C28.02,39.698,28.152,39.096,28.152,38.491z M22.434,46.996c-0.813,0-1.604-0.226-2.286-0.653  c-0.163-0.102-0.347-0.152-0.531-0.152c-0.237,0-0.451,0.111-0.659,0.248c-1.755,1.156-2.746-0.252-2.746-1.077  c0-0.707,0.548-1.323,1.302-1.463c0.457-0.085,0.794-0.473,0.816-0.936c0.059-1.266,0.779-2.424,1.926-3.098  c0.354-0.208,0.549-0.651,0.476-1.054c-0.311-1.716,1.187-2.858,2.691-2.858c1.504,0,2.728,1.139,2.728,2.539  c0,0.448-0.132,0.881-0.392,1.288c-0.224,0.351-0.207,0.805,0.043,1.138c0.494,0.659,0.755,1.424,0.755,2.213  C26.559,45.262,24.708,46.996,22.434,46.996z M65.063,39.218c0,0-0.011-10.268-0.01-10.236c0.021,0.436,0.04-0.529-0.239-0.871  l-4.049-7.335c-0.352-0.638-1.022-1.034-1.751-1.034H55.09V9.848c0-1.678-0.691-4.492-5.322-4.492h-1.375  c-3.677,0-5.322,2.256-5.322,4.492v9.894h-5.938c-1.104,0-2,0.896-2,2v10.3c0,0.046-1.909,6.486-1.358,10.435  c-3.204,1.964-4.946,4.432-4.946,7.087v33.527c0,6.586,10.703,11.553,24.896,11.553s24.897-4.967,24.897-11.553V49.564  C78.622,44.974,73.564,41.138,65.063,39.218z M61.124,50.365H58.06c-0.832-1.161-2.411-3.826-2.739-7.721  c-0.023-0.275-0.27-0.481-0.54-0.456c-0.275,0.023-0.479,0.265-0.456,0.54c0.302,3.592,1.59,6.185,2.522,7.637h-2.73  c-0.537-0.912-1.416-2.783-1.852-5.81c-0.04-0.273-0.294-0.467-0.566-0.424c-0.273,0.04-0.463,0.293-0.424,0.566  c0.39,2.703,1.121,4.552,1.699,5.667H44.87c-0.637-1.105-2.213-4.154-2.536-7.785c-0.071-0.799-0.113-2.723-0.134-4.051h18.338  c0.066,0.562,0.024,7.347,5.285,11.836h-3.36c-1.204-1.3-3.751-4.563-3.751-8.919c0-0.276-0.224-0.5-0.5-0.5s-0.5,0.224-0.5,0.5  C57.711,45.546,59.727,48.68,61.124,50.365z M61.063,30.077v6.451H42.182v-6.451H61.063z M47.071,9.563  c0.21-0.156,3.874-0.088,3.997-0.033c0.01,0.056,0.022,1.069,0.022,1.069c-0.29,0.127-3.732,0.124-4.019,0.015V9.563z M47.071,12.69  c0.438,0.101,0.92,0.16,1.443,0.16h1.133c0.523,0,1.005-0.058,1.443-0.16c0,0,0.022,8.99,0.055,9.136c0,0,0,0,0,0  c0,1.146-0.926,2.077-2.065,2.077c-1.139,0-2.065-0.932-2.065-2.077C47.049,21.681,47.071,12.69,47.071,12.69z M49.08,25.903  c1.388,0,2.604-0.709,3.335-1.778h5.63l2.182,3.952H41.728l-2.533-3.952h6.549C46.475,25.195,47.692,25.903,49.08,25.903z   M39.133,27.734l1.049,1.636v4.745l-1.087-1.696C39.118,32.297,39.133,27.734,39.133,27.734z M38.454,35.126l1.727,2.695  c0,0,0.082,4.045,0.161,4.935c0.187,2.109,0.746,4.02,1.34,5.548c-1.446-1.441-3.101-3.495-3.879-5.924  c0-0.001-0.002-0.002-0.002-0.004C37.372,40.531,37.837,37.528,38.454,35.126z M74.622,83.091c0,3.154-7.95,7.553-20.897,7.553  c-12.947,0-20.896-4.399-20.896-7.553v-6.029c4.045,3.224,11.799,5.362,20.896,5.362c9.098,0,16.852-2.138,20.897-5.362V83.091z   M74.622,74.307c-2.642,3.263-10.377,6.117-20.897,6.117S35.47,77.57,32.829,74.307v-8.332c4.045,3.224,11.799,5.362,20.896,5.362  c9.098,0,16.852-2.138,20.897-5.362V74.307z M74.622,63.22c-2.642,3.263-10.377,6.117-20.897,6.117S35.47,66.483,32.829,63.22v-8.63  c3.944,3.286,11.734,5.477,20.896,5.477c9.163,0,16.953-2.191,20.897-5.477V63.22z M74.622,51.714  c-2.365,3.351-10.162,6.352-20.897,6.352c-10.734,0-18.532-3.002-20.896-6.352v-2.15c0-1.379,1.522-2.946,4.077-4.254  c2.229,4.119,6.654,7.054,6.846,7.054c0.094,0,24.919,0,24.919,0c0.438,0,0.825-0.285,0.955-0.703  c0.13-0.418-0.027-0.872-0.388-1.121c-0.033-0.023-4.737-4.666-5.05-7.51c1.792,0.412,10.435,3.156,10.435,6.533V51.714z   M82.779,39.503c0-1.038-0.646-1.929-1.556-2.291c-0.069-2.49-2.116-4.495-4.623-4.495c-0.569,0-1.126,0.104-1.649,0.305  c-0.697-0.916-1.792-1.483-2.976-1.483c-2.068,0-3.75,1.682-3.75,3.75c0,2.179,1.92,3.925,4.083,3.735  c0.679,1.734,2.369,2.943,4.292,2.943c0.754,0,1.497-0.191,2.162-0.549c0.43,0.349,0.974,0.549,1.553,0.549  C81.674,41.968,82.779,40.862,82.779,39.503z M79.886,39.683c-0.125-0.295-0.383-0.514-0.695-0.586  c-0.075-0.017-0.151-0.026-0.227-0.026c-0.238,0-0.46,0.101-0.656,0.245c-2.465,1.81-4.118-0.325-4.293-1.62  c-0.042-0.307-0.223-0.578-0.492-0.732c-0.268-0.154-0.606-0.202-0.88-0.058c-1.455,0.767-2.417-0.651-2.417-1.616  s0.785-1.75,1.75-1.75c0.728,0,1.385,0.465,1.637,1.157c0.105,0.291,0.34,0.517,0.635,0.611c0.293,0.096,0.617,0.047,0.871-0.128  c0.44-0.302,0.952-0.461,1.482-0.461c1.447,0,2.837,1.063,2.572,3.142c-0.04,0.316,0.055,0.631,0.27,0.866s0.553,0.35,0.873,0.313  c0.256,0,0.464,0.208,0.464,0.464s-0.208,0.464-0.464,0.464C80.127,39.968,79.959,39.856,79.886,39.683z"></path></svg>