<svg height='100px' width='100px'  fill="#000000" xmlns="http://www.w3.org/2000/svg" xmlns:xlink="http://www.w3.org/1999/xlink" version="1.1" x="0px" y="0px" viewBox="0 0 208 176" enable-background="new 0 0 208 176" xml:space="preserve"><g><path d="M144.8203125,136.2509766v-11.2871094c5.8730469-1.6240234,10.2128906-6.9501953,10.2128906-13.3447266   c-0.0039063-7.6777344-6.2216797-13.9023438-13.90625-13.9023438c-2.0839844,0-4.0400391,0.4902344-5.8144531,1.3125   L115.375,79.0932617c-1.2304688,2.1879883-2.9453125,4.0454102-5.0556641,5.3891602l19.3232422,19.3144531   c-1.5224609,2.2314453-2.4169922,4.9179688-2.4169922,7.8222656c0,2.3779297,0.6542969,4.5791016,1.7041016,6.5380859   l-7.2265625,7.2285156l-7.2294922-7.2285156c1.0498047-1.9550781,1.7041016-4.1601563,1.7041016-6.5380859   c0-6.3896484-4.3339844-11.7158203-10.203125-13.3388672V86.3417969c-1.1884766,0.3007813-2.4140625,0.5097656-3.6943359,0.5097656   c-1.2792969,0-2.5009766-0.2089844-3.6875-0.5097656v11.9316406c-5.8789063,1.6240234-10.2182617,6.9492188-10.2216797,13.3457031   c0,2.3779297,0.6542969,4.5869141,1.7075195,6.5458984l-7.2207031,7.2207031l-7.2280273-7.2285156   c1.0498047-1.9589844,1.7041016-4.1601563,1.7041016-6.5380859c0-2.9042969-0.8930664-5.5908203-2.4121094-7.8203125   l19.3188477-19.3164063c-2.1108398-1.34375-3.8256836-3.2011719-5.0546875-5.3891602L69.2480469,99.03125   c-1.7724609-0.8242188-3.7314453-1.3144531-5.8164063-1.3144531c-7.6826172,0-13.9013672,6.2246094-13.9052734,13.9023438   c0,6.3945313,4.3393555,11.7207031,10.2148438,13.3447266v11.2871094   c-5.8754883,1.6240234-10.2109375,6.9472656-10.2148438,13.3398438c0,7.6806641,6.2226563,13.9091797,13.9052734,13.9091797   c7.6777344-0.0039063,13.9003906-6.2285156,13.9023438-13.9091797c0-2.3769531-0.6542969-4.5820313-1.7041016-6.5332031   l7.2280273-7.2285156l7.2207031,7.2207031c-1.0532227,1.9580078-1.7075195,4.1601563-1.7075195,6.5410156   C88.3745117,157.2714844,94.5957031,163.5,102.2763672,163.5c7.6767578-0.0039063,13.9013672-6.2285156,13.9013672-13.9091797   c0-2.3769531-0.6542969-4.5820313-1.7041016-6.5332031l7.2294922-7.2285156l7.2265625,7.2285156   c-1.0498047,1.9511719-1.7041016,4.15625-1.7041016,6.5332031c0.0039063,7.6806641,6.2246094,13.9052734,13.9013672,13.9091797   c7.6845703,0,13.90625-6.2285156,13.90625-13.9091797C155.0292969,143.1982422,150.6933594,137.875,144.8203125,136.2509766z    M102.2763672,105.0986328c3.5986328,0.0068359,6.5126953,2.9257813,6.5205078,6.5205078   c-0.0078125,3.6035156-2.921875,6.5166016-6.5205078,6.5214844c-3.6040039-0.0048828-6.5166016-2.9179688-6.5219727-6.5214844   C95.7597656,108.0244141,98.6762695,105.1054688,102.2763672,105.0986328z M56.909668,111.6191406   c0.0058594-3.5986328,2.918457-6.5136719,6.5219727-6.5205078c3.5986328,0.0068359,6.5131836,2.9257813,6.5205078,6.5205078   c-0.0073242,3.6035156-2.921875,6.5166016-6.5205078,6.5214844   C59.8261719,118.1357422,56.9155273,115.2265625,56.909668,111.6191406z M63.4316406,156.1162109   c-3.6035156-0.0068359-6.5161133-2.9179688-6.5219727-6.5253906c0.0058594-3.5986328,2.9165039-6.5107422,6.5219727-6.5166016   c3.5986328,0.0058594,6.5131836,2.921875,6.5205078,6.5166016   C69.9448242,153.1982422,67.0302734,156.109375,63.4316406,156.1162109z M70.5400391,137.7050781   c-1.0571289-0.6337891-2.2011719-1.1181641-3.4174805-1.4541016v-11.2871094   c1.2163086-0.3359375,2.3603516-0.8183594,3.4174805-1.4541016l7.0966797,7.0986328L70.5400391,137.7050781z    M88.0791016,130.6083984l7.0927734-7.0947266c1.0576172,0.6318359,2.1992188,1.1142578,3.4135742,1.4501953v11.2871094   c-1.2124023,0.3359375-2.355957,0.8203125-3.409668,1.4501953L88.0791016,130.6083984z M102.2763672,156.1162109   c-3.6000977-0.0068359-6.5166016-2.9179688-6.5219727-6.5253906c0.0053711-3.5947266,2.9179688-6.5107422,6.5219727-6.5166016   c3.5986328,0.0058594,6.5126953,2.921875,6.5205078,6.5166016C108.7890625,153.1982422,105.875,156.109375,102.2763672,156.1162109   z M109.3847656,137.7050781c-1.0537109-0.6318359-2.1992188-1.1181641-3.4101563-1.4541016v-11.2871094   c1.2109375-0.3359375,2.3525391-0.8183594,3.40625-1.4541016l7.0996094,7.0986328L109.3847656,137.7050781z    M147.6513672,111.6191406c-0.0078125,3.6074219-2.9169922,6.5166016-6.5244141,6.5214844   c-3.5957031-0.0048828-6.5126953-2.9179688-6.5195313-6.5214844c0.0068359-3.5947266,2.9238281-6.5136719,6.5195313-6.5205078   C144.7314453,105.1054688,147.6435547,108.0205078,147.6513672,111.6191406z M126.921875,130.6083984l7.0976563-7.0986328   c1.0566406,0.6357422,2.203125,1.1181641,3.4150391,1.4541016v11.2871094   c-1.2119141,0.3359375-2.3583984,0.8203125-3.4150391,1.4541016L126.921875,130.6083984z M141.1269531,156.1162109   c-3.5957031-0.0068359-6.5126953-2.9179688-6.5195313-6.5253906c0.0068359-3.5947266,2.9238281-6.5107422,6.5195313-6.5166016   c3.6074219,0.0058594,6.5166016,2.9179688,6.5244141,6.5166016   C147.6435547,153.1982422,144.7314453,156.109375,141.1269531,156.1162109z"></path><path d="M90.6533203,63.8789063v7.9082031c0,6.4262695,5.2045898,11.6269531,11.6269531,11.6269531   c6.4189453,0,11.6279297-5.2006836,11.6279297-11.6269531v-7.9082031   c8.4570313-4.2617188,14.2675781-12.9995117,14.2675781-23.1162109c0-14.2993164-11.5878906-25.8964844-25.8955078-25.8964844   c-14.3012695,0-25.8945313,11.597168-25.8945313,25.8964844C76.3857422,50.8793945,82.1923828,59.6171875,90.6533203,63.8789063z"></path></g></svg>