<svg height='100px' width='100px'  fill="#000000" xmlns="http://www.w3.org/2000/svg" xmlns:xlink="http://www.w3.org/1999/xlink" version="1.1" x="0px" y="0px" viewBox="0 0 100 100" style="enable-background:new 0 0 100 100;" xml:space="preserve"><g><path d="M50,55.257c-8.942,0-16.19,7.248-16.19,16.19C33.81,84.334,50,100,50,100s16.189-15.666,16.189-28.553   C66.189,62.505,58.941,55.257,50,55.257z M50,83.261c-6.525,0-11.814-5.289-11.814-11.813c0-6.525,5.29-11.814,11.814-11.814   c6.524,0,11.814,5.289,11.814,11.814C61.814,77.972,56.524,83.261,50,83.261z M11.106,0C4.972,0,0,4.972,0,11.106   c0,8.84,11.106,19.587,11.106,19.587s11.105-10.747,11.105-19.587C22.212,4.972,17.24,0,11.106,0z M11.106,19.21   c-4.477,0-8.104-3.628-8.104-8.104c0-4.476,3.628-8.104,8.104-8.104c4.476,0,8.104,3.628,8.104,8.104   C19.21,15.582,15.582,19.21,11.106,19.21z M50,0c-6.134,0-11.106,4.972-11.106,11.106C38.894,19.947,50,30.693,50,30.693   s11.105-10.747,11.105-19.587C61.105,4.972,56.134,0,50,0z M50,19.21c-4.476,0-8.104-3.628-8.104-8.104   c0-4.476,3.628-8.104,8.104-8.104s8.104,3.628,8.104,8.104C58.104,15.582,54.477,19.21,50,19.21z M88.895,0   C82.76,0,77.788,4.972,77.788,11.106c0,8.84,11.106,19.587,11.106,19.587S100,19.947,100,11.106C100,4.972,95.027,0,88.895,0z    M88.895,19.21c-4.477,0-8.104-3.628-8.104-8.104c0-4.476,3.628-8.104,8.104-8.104c4.476,0,8.104,3.628,8.104,8.104   C96.998,15.582,93.37,19.21,88.895,19.21z M30.273,74.414c-2.844,0-5.48-0.321-7.837-0.955l1.521-5.658   c1.86,0.5,3.985,0.754,6.316,0.754L30.273,74.414L30.273,74.414z M19.257,72.347c-2.973-1.309-5.411-3.224-7.247-5.691l4.702-3.496   c1.222,1.644,2.872,2.93,4.905,3.824L19.257,72.347L19.257,72.347z M10.212,63.66c-1.222-2.569-1.901-5.501-2.018-8.714   l5.855-0.212c0.088,2.409,0.577,4.565,1.454,6.408L10.212,63.66L10.212,63.66z M14.036,51.908H8.176v-7.821h5.859V51.908   L14.036,51.908z M14.036,41.153H8.176v-7.83h5.859V41.153L14.036,41.153z M52.93,51.908H47.07v-7.821h5.859V51.908L52.93,51.908z    M52.93,41.153H47.07v-7.83h5.859V41.153L52.93,41.153z M69.727,74.414v-5.859c2.33,0,4.455-0.254,6.315-0.754l1.521,5.658   C75.207,74.093,72.57,74.414,69.727,74.414L69.727,74.414z M80.743,72.347l-2.36-5.363c2.033-0.895,3.684-2.181,4.904-3.824   l4.703,3.496C86.154,69.123,83.717,71.038,80.743,72.347L80.743,72.347z M89.787,63.66l-5.291-2.518   c0.877-1.843,1.367-3.999,1.454-6.408l5.855,0.212C91.689,58.159,91.01,61.091,89.787,63.66L89.787,63.66z M91.824,51.908h-5.859   v-7.821h5.859V51.908L91.824,51.908z M91.824,41.153h-5.859v-7.83h5.859V41.153L91.824,41.153z"></path></g></svg>