<svg height='100px' width='100px'  fill="#000000" xmlns="http://www.w3.org/2000/svg" data-name="Layer 1" viewBox="0 0 128 128" x="0px" y="0px"><title>Miscellaneous 24 final</title><path d="M92,66a2,2,0,0,0,0-4H88a2,2,0,0,0,0,4Z"></path><path d="M76,66h4a2,2,0,0,0,0-4H76a2,2,0,0,0,0,4Z"></path><path d="M82,74h4a2,2,0,0,0,0-4H82a2,2,0,0,0,0,4Z"></path><path d="M98,70H94a2,2,0,0,0,0,4h4a2,2,0,0,0,0-4Z"></path><path d="M98,58a2,2,0,0,0,0-4H94a2,2,0,0,0,0,4Z"></path><path d="M82,54a2,2,0,0,0,0,4h4a2,2,0,0,0,0-4Z"></path><path d="M118.22,53.4a2,2,0,0,0-2.83,2.83L121.17,62H100a2,2,0,0,0,0,4h21.17l-5.78,5.78a2,2,0,1,0,2.83,2.83l9.19-9.19a2,2,0,0,0,0-2.83Z"></path><path d="M12.6,8.4a2,2,0,0,0-2.83,0L.59,17.59a2,2,0,0,0,0,2.83L9.78,29.6a2,2,0,0,0,2.83-2.83L6.83,21H28a2,2,0,0,0,0-4H6.83l5.78-5.78A2,2,0,0,0,12.6,8.4Z"></path><path d="M9.78,59.6a2,2,0,0,0,2.83-2.83L6.83,51H28a2,2,0,0,0,0-4H6.83l5.78-5.78A2,2,0,0,0,9.78,38.4L.59,47.59a2,2,0,0,0,0,2.83Z"></path><path d="M9.78,89.6a2,2,0,0,0,2.83-2.83L6.83,81H28a2,2,0,0,0,0-4H6.83l5.78-5.78A2,2,0,0,0,9.78,68.4L.59,77.59a2,2,0,0,0,0,2.83Z"></path><path d="M28,107H6.83l5.78-5.78A2,2,0,1,0,9.78,98.4L.59,107.58a2,2,0,0,0-.25.31s-.05.1-.08.15a2,2,0,0,0-.1.2,2,2,0,0,0-.06.2c0,.06,0,.11-.05.17a2,2,0,0,0,0,.78c0,.06,0,.12.05.17a2,2,0,0,0,.06.2,2,2,0,0,0,.1.2s0,.1.08.15a2,2,0,0,0,.25.31l9.19,9.19a2,2,0,0,0,2.83-2.83L6.83,111H28a2,2,0,0,0,0-4Z"></path><path d="M58,93H36.83l5.78-5.78a2,2,0,0,0-2.83-2.83l-9.19,9.19a2,2,0,0,0,0,2.83l9.19,9.19a2,2,0,0,0,2.83-2.83L36.83,97H59a2.69,2.69,0,0,0,1-2A2,2,0,0,0,58,93Z"></path><path d="M60,65a2,2,0,0,0-2-2H36.83l5.78-5.78a2,2,0,0,0-2.83-2.83l-9.19,9.19a2,2,0,0,0,0,2.83l9.19,9.19a2,2,0,0,0,2.83-2.83L36.83,67H58A2,2,0,0,0,60,65Z"></path><path d="M58,33H36.83l5.78-5.78a2,2,0,0,0-2.83-2.83l-9.19,9.19a2,2,0,0,0,0,2.83l9.19,9.19a2,2,0,0,0,2.83-2.83L36.83,37H58a2,2,0,0,0,0-4Z"></path><path d="M90,48a2,2,0,0,0-2-2H66.83l5.78-5.78a2,2,0,0,0-2.83-2.83l-9.19,9.19a2,2,0,0,0,0,2.83l9.19,9.19a2,2,0,0,0,2.83-2.83L66.83,50H88A2,2,0,0,0,90,48Z"></path><path d="M88,78H66.83l5.78-5.78a2,2,0,0,0-2.83-2.83l-9.19,9.19a2,2,0,0,0,0,2.83l9.19,9.19a2,2,0,0,0,2.83-2.83L66.83,82H88a2,2,0,0,0,0-4Z"></path></svg>