<svg height='100px' width='100px'  fill="#000000" xmlns="http://www.w3.org/2000/svg" xmlns:xlink="http://www.w3.org/1999/xlink" version="1.1" x="0px" y="0px" viewBox="0 0 100 100" enable-background="new 0 0 100 100" xml:space="preserve"><g><g><path d="M55,37.5c-0.161,0-0.319-0.078-0.416-0.223c-0.153-0.23-0.091-0.54,0.139-0.693l0.416-0.277    c0.227-0.153,0.539-0.093,0.693,0.139c0.153,0.23,0.091,0.54-0.139,0.693l-0.416,0.277C55.192,37.473,55.096,37.5,55,37.5z"></path><path d="M58.127,35.416c-0.161,0-0.319-0.078-0.416-0.223c-0.153-0.229-0.091-0.54,0.139-0.693l0.903-0.603    c0.228-0.153,0.539-0.092,0.693,0.139c0.153,0.229,0.091,0.54-0.139,0.693l-0.903,0.603    C58.319,35.388,58.223,35.416,58.127,35.416z M61.741,33.006c-0.161,0-0.319-0.078-0.416-0.223    c-0.153-0.23-0.091-0.54,0.139-0.693l0.903-0.602c0.228-0.152,0.539-0.092,0.693,0.139c0.153,0.23,0.091,0.54-0.139,0.693    l-0.903,0.602C61.934,32.979,61.837,33.006,61.741,33.006z M65.355,30.597c-0.161,0-0.319-0.078-0.416-0.223    c-0.153-0.229-0.091-0.54,0.139-0.693l0.903-0.603c0.228-0.152,0.539-0.092,0.693,0.139c0.153,0.229,0.091,0.54-0.139,0.693    l-0.903,0.603C65.548,30.569,65.451,30.597,65.355,30.597z M68.97,28.187c-0.161,0-0.319-0.078-0.416-0.223    c-0.153-0.229-0.091-0.54,0.139-0.693l0.903-0.603c0.228-0.152,0.539-0.092,0.693,0.139c0.153,0.229,0.091,0.54-0.139,0.693    l-0.903,0.603C69.162,28.16,69.065,28.187,68.97,28.187z"></path><path d="M72.584,25.777c-0.161,0-0.319-0.078-0.416-0.223c-0.153-0.23-0.091-0.54,0.139-0.693l0.416-0.277    c0.227-0.153,0.539-0.093,0.693,0.139c0.153,0.23,0.091,0.54-0.139,0.693l-0.416,0.277C72.776,25.75,72.68,25.777,72.584,25.777z"></path></g><g><path d="M57.5,40.5H57c-0.276,0-0.5-0.224-0.5-0.5s0.224-0.5,0.5-0.5h0.5c0.276,0,0.5,0.224,0.5,0.5S57.776,40.5,57.5,40.5z"></path><path d="M72.657,40.5H71.71c-0.276,0-0.5-0.224-0.5-0.5s0.224-0.5,0.5-0.5h0.947c0.276,0,0.5,0.224,0.5,0.5    S72.934,40.5,72.657,40.5z M68.868,40.5h-0.947c-0.276,0-0.5-0.224-0.5-0.5s0.224-0.5,0.5-0.5h0.947c0.276,0,0.5,0.224,0.5,0.5    S69.145,40.5,68.868,40.5z M65.079,40.5h-0.948c-0.276,0-0.5-0.224-0.5-0.5s0.224-0.5,0.5-0.5h0.948c0.276,0,0.5,0.224,0.5,0.5    S65.355,40.5,65.079,40.5z M61.289,40.5h-0.947c-0.276,0-0.5-0.224-0.5-0.5s0.224-0.5,0.5-0.5h0.947c0.276,0,0.5,0.224,0.5,0.5    S61.565,40.5,61.289,40.5z"></path><path d="M76,40.5h-0.5c-0.276,0-0.5-0.224-0.5-0.5s0.224-0.5,0.5-0.5H76c0.276,0,0.5,0.224,0.5,0.5S76.276,40.5,76,40.5z"></path></g><g><path d="M55.416,43.777c-0.096,0-0.192-0.027-0.277-0.084l-0.416-0.277c-0.229-0.153-0.292-0.463-0.139-0.693    c0.154-0.231,0.465-0.292,0.693-0.139l0.416,0.277c0.229,0.153,0.292,0.463,0.139,0.693    C55.735,43.699,55.577,43.777,55.416,43.777z"></path><path d="M69.873,53.416c-0.096,0-0.192-0.027-0.277-0.084l-0.903-0.603c-0.229-0.153-0.292-0.464-0.139-0.693    c0.154-0.229,0.466-0.29,0.693-0.139L70.15,52.5c0.229,0.153,0.292,0.464,0.139,0.693C70.192,53.338,70.034,53.416,69.873,53.416z     M66.259,51.007c-0.096,0-0.192-0.028-0.277-0.084l-0.903-0.603c-0.229-0.153-0.292-0.464-0.139-0.693    c0.154-0.23,0.466-0.291,0.693-0.139l0.903,0.603c0.229,0.153,0.292,0.464,0.139,0.693C66.578,50.928,66.42,51.007,66.259,51.007z     M62.645,48.597c-0.096,0-0.192-0.027-0.277-0.084l-0.903-0.603c-0.229-0.153-0.292-0.464-0.139-0.693    c0.153-0.23,0.466-0.291,0.693-0.139l0.903,0.603c0.229,0.153,0.292,0.464,0.139,0.693C62.964,48.519,62.806,48.597,62.645,48.597    z M59.03,46.187c-0.096,0-0.192-0.027-0.277-0.084L57.85,45.5c-0.229-0.153-0.292-0.464-0.139-0.693    c0.153-0.23,0.465-0.291,0.693-0.139l0.903,0.603c0.229,0.153,0.292,0.464,0.139,0.693C59.35,46.109,59.191,46.187,59.03,46.187z"></path><path d="M73,55.5c-0.096,0-0.192-0.027-0.277-0.084l-0.416-0.277c-0.229-0.153-0.292-0.464-0.139-0.693    c0.154-0.23,0.465-0.291,0.693-0.139l0.416,0.277c0.229,0.153,0.292,0.464,0.139,0.693C73.319,55.422,73.161,55.5,73,55.5z"></path></g><path d="M75,57v20h20V57H75z M76,75l9-16l9,16H76z"></path><path d="M49.727,40.157c0-1.738,2.062-1.841,2.539-3.492c0.454-1.567-1.497-12.836-4.797-15.442   c-5.238-4.135-12.072-7.08-22.291-6.311C14.409,15.723,9.225,20.232,6.65,31.125c-4.516,19.107,5.298,22.841,4.95,40.559   C11.519,75.855,8.821,81.931,5,87.142c8.859,5.385,22.233,9.38,35.261,7.295c-2.605-11.812-2.734-19.229-1.737-21.191   c1.853-3.648,7.286-0.638,10.596-3.561c2.229-1.969,0.466-4.505,0.868-5.443c0.803-1.871,1.65-1.708,1.39-3.156   c-0.174-0.695-1.39-1.39-1.39-1.39s1.766-0.376,2.215-1.303c0.529-1.092-1.65-3.691-0.825-5.211   c0.667-1.229,4.024,0.058,4.864-1.998C57.565,47.946,49.727,42.82,49.727,40.157z M18,39l9-16l9,16H18z"></path><g><path d="M77.864,24c1.815,1.85,4.34,3,7.136,3s5.321-1.15,7.136-3H77.864z"></path><path d="M85,8l8.244,14.656C94.35,21.047,95,19.1,95,17c0-5.523-4.477-10-10-10s-10,4.477-10,10c0,2.1,0.65,4.047,1.756,5.656    L85,8z"></path></g><polygon points="80,70.464 83.536,74 89.192,68.343 87.778,66.929 83.536,71.172 81.414,69.05  "></polygon><polygon points="80,19.464 83.536,23 89.192,17.343 87.778,15.929 83.536,20.172 81.414,18.05  "></polygon><path d="M85,33l-9,16h18L85,33z M80,44.536l1.414-1.414l2.121,2.121L87.778,41l1.414,1.414l-5.657,5.657L80,44.536z"></path></g></svg>