<svg height='100px' width='100px'  fill="#000000" xmlns="http://www.w3.org/2000/svg" xmlns:xlink="http://www.w3.org/1999/xlink" version="1.1" x="0px" y="0px" viewBox="0 0 100 100" style="enable-background:new 0 0 100 100;" xml:space="preserve"><path d="M93.9,92.1c-2.8-0.7-7.2-0.7-12.7-0.6c-8.8,0.2-21,0.4-33-2.8l-5.6-1.5l-32.3-7.6C9.7,79.3,8.4,79,8,78.7  c0-0.2,0.1-0.6,0.3-1.3c1.1-3.9,7.1-3.7,8.6-3.3c0.1,0,0.1,0,0.2,0l16.6,2.6c0.1,0.1,0.1,0.2,0.2,0.4c1,1.5,2.9,1.8,4.8,2l15.1,3  l0.1,0c0.6,0.1,3.7,0.4,7.3,0.4c3.9,0,8.3-0.4,10.9-2c0.7-0.4,0.9-1.4,0.5-2.1c-0.4-0.7-1.4-0.9-2.1-0.5c-3.4,2.1-12.7,1.5-16.2,1.1  l-15.1-3c-0.9-0.1-2.6-0.4-2.8-0.7c0-0.1-0.3-0.5,0.2-2.4c0.5-2,3.4-3.8,7.7-3.3l10.8,2.1l0.3-0.1c0.2-0.1,23-6.6,37.2,4.3  c0.7,0.5,1.6,0.4,2.1-0.3c0.5-0.7,0.4-1.6-0.3-2.1c-6.4-4.9-15.3-7.3-25.8-6.9c-6.9,0.3-12.2,1.6-13.6,2l-10.1-2l-0.1,0  c-6.1-0.7-10.2,2.2-11,5.5c-0.1,0.4-0.2,0.9-0.3,1.4l-15.8-2.4C14.1,70.3,6.9,71,5.4,76.7c-0.3,1.2-0.7,2.7,0.2,3.9  c0.7,0.9,2,1.3,3.9,1.8L41.9,90l5.6,1.5c12.5,3.3,24.8,3.1,33.8,2.9c5.3-0.1,9.5-0.2,11.9,0.5c0.1,0,0.3,0.1,0.4,0.1  c0.7,0,1.3-0.4,1.4-1.1C95.2,93.1,94.7,92.3,93.9,92.1z"></path><g><path d="M68.1,35.8l-9.8-17c-1.5-2.6-4.9-3.5-7.5-2l-17,9.8c-1.3,0.7-2.2,1.9-2.6,3.3c-0.4,1.4-0.2,2.9,0.5,4.2l9.8,17   c1,1.8,2.9,2.7,4.8,2.7c0.9,0,1.9-0.2,2.7-0.7l17-9.8C68.8,41.8,69.7,38.5,68.1,35.8z M64.6,40.8l-17,9.8c-1.2,0.7-2.7,0.3-3.4-0.9   l-9.8-17c-0.3-0.6-0.4-1.3-0.2-1.9s0.6-1.2,1.2-1.5l17-9.8c0.4-0.2,0.8-0.3,1.2-0.3c0.9,0,1.7,0.4,2.2,1.2l9.8,17   C66.2,38.5,65.8,40.1,64.6,40.8z"></path><ellipse transform="matrix(0.866 -0.5 0.5 0.866 -10.8014 29.6889)" cx="50" cy="35" rx="2.5" ry="2.5"></ellipse><ellipse transform="matrix(0.866 -0.5 0.5 0.866 -10.8015 25.328)" cx="41.9" cy="32.8" rx="2.5" ry="2.5"></ellipse><ellipse transform="matrix(0.866 -0.5 0.5 0.866 -10.8011 34.0511)" cx="58.1" cy="37.2" rx="2.5" ry="2.5"></ellipse><ellipse transform="matrix(0.866 -0.5 0.5 0.866 -15.1627 29.6891)" cx="47.8" cy="43.1" rx="2.5" ry="2.5"></ellipse><ellipse transform="matrix(0.866 -0.5 0.5 0.866 -6.4398 29.6887)" cx="52.2" cy="26.9" rx="2.5" ry="2.5"></ellipse></g></svg>