<svg height='100px' width='100px'  fill="#000000" xmlns="http://www.w3.org/2000/svg" xmlns:xlink="http://www.w3.org/1999/xlink" version="1.0" x="0px" y="0px" viewBox="0 0 100 100" enable-background="new 0 0 100 100" xml:space="preserve"><g><g><path d="M46.6,25c1-4.2-1.7-8.6-5.9-9.6c-4.2-0.9-8.4,1.9-9.3,6.2c-0.9,4.3,1.9,8.6,6.2,9.3C41.6,31.7,45.7,29.1,46.6,25z"></path><path d="M44,38.8c0.6,4.1,0.8,8.2,0.9,12.2c0,4.1-0.1,8.2-0.4,12.2c-0.3,4.1-2.6,20.4-3.7,24.5c-0.4,1.5-2,2.4-3.5,2    c-1-0.3-1.8-1.1-2-2c-1.1-4.1-3.4-20.4-3.7-24.5c-0.3-4.1-0.5-8.2-0.4-12.2c0-4.1,0.2-8.2,0.9-12.2c0.5-3.3,3.6-5.6,6.9-5.1    C41.7,34.1,43.7,36.2,44,38.8z"></path></g></g><g><g><path d="M68,45.6c0.9-3.8-1.5-7.8-5.3-8.6c-3.8-0.9-7.6,1.7-8.4,5.6c-0.8,3.9,1.7,7.8,5.6,8.4C63.5,51.6,67.1,49.2,68,45.6z"></path><path d="M64.9,56.9c0.5,3.1,0.6,6.2,0.6,9.3c0,3.1-0.1,3.2-0.3,6.3c-0.2,3.1-1.9,11.4-2.8,14.5c-0.3,1.2-1.5,1.9-2.7,1.5    c-0.8-0.2-1.3-0.8-1.5-1.5c-0.8-3.1-2.5-11.4-2.8-14.5c-0.2-3.1-0.3-3.2-0.3-6.3c0-3.1,0.2-6.2,0.6-9.3c0.4-2.5,2.7-4.2,5.2-3.8    C63.1,53.3,64.6,54.9,64.9,56.9z"></path></g></g><g><g><path d="M89.4,45.6c0.9-3.8-1.5-7.8-5.3-8.6c-3.8-0.9-7.6,1.7-8.4,5.6c-0.8,3.9,1.7,7.8,5.6,8.4C84.9,51.6,88.5,49.2,89.4,45.6z"></path><path d="M86.3,56.9c0.5,3.1,0.6,6.2,0.6,9.3c0,3.1-0.1,3.2-0.3,6.3c-0.2,3.1-1.9,11.4-2.8,14.5c-0.3,1.2-1.5,1.9-2.7,1.5    c-0.8-0.2-1.3-0.8-1.5-1.5c-0.8-3.1-2.5-11.4-2.8-14.5c-0.2-3.1-0.3-3.2-0.3-6.3c0-3.1,0.2-6.2,0.6-9.3c0.4-2.5,2.7-4.2,5.2-3.8    C84.5,53.3,86,54.9,86.3,56.9z"></path></g></g><g><g><path d="M23.7,45.6c0.9-3.8-1.5-7.8-5.3-8.6c-3.8-0.9-7.6,1.7-8.4,5.6c-0.8,3.9,1.7,7.8,5.6,8.4C19.2,51.6,22.8,49.2,23.7,45.6z"></path><path d="M20.6,56.9c0.5,3.1,0.6,6.2,0.6,9.3c0,3.1-0.1,3.2-0.3,6.3c-0.2,3.1-1.9,11.4-2.8,14.5c-0.3,1.2-1.5,1.9-2.7,1.5    c-0.8-0.2-1.3-0.8-1.5-1.5c-0.8-3.1-2.5-11.4-2.8-14.5c-0.2-3.1-0.3-3.2-0.3-6.3c0-3.1,0.2-6.2,0.6-9.3c0.4-2.5,2.7-4.2,5.2-3.8    C18.8,53.3,20.3,54.9,20.6,56.9z"></path></g></g><g display="none"><g display="inline"><path d="M61,25c1-4.2-1.7-8.6-5.9-9.6c-4.2-0.9-8.4,1.9-9.3,6.2C44.9,26,47.8,30.2,52,31C56.1,31.7,60.1,29.1,61,25z"></path><g><path d="M58.5,38.8c0.6,4.1,0.8,8.2,0.9,12.2c0,4.1-0.1,8.2-0.4,12.2c-0.3,4.1-0.7,8.2-1.3,12.2c-0.6,4.1-1.3,8.2-2.4,12.2     c-0.4,1.5-2,2.4-3.5,2c-1-0.3-1.8-1.1-2-2c-1.1-4.1-1.8-8.2-2.4-12.2c-0.6-4.1-1-8.2-1.3-12.2c-0.3-4.1-0.5-8.2-0.4-12.2     c0-4.1,0.2-8.2,0.9-12.2c0.5-3.3,3.6-5.6,6.9-5.1C56.1,34.1,58.1,36.2,58.5,38.8z"></path></g></g></g></svg>