<svg height='100px' width='100px'  fill="#000000" xmlns="http://www.w3.org/2000/svg" viewBox="0 0 96 96" x="0px" y="0px"><title>Artboard 26</title><path d="M90,38.5H74a1.9988,1.9988,0,0,0-2,2v16a1.9988,1.9988,0,0,0,2,2h5.8359C79.0066,68.406,72.31,74.5,66,74.5c-10.0195,0-16-9.7187-16-26,0-18.5039-7.6641-30-20-30-8.21,0-16.9387,7.626-17.8274,20H6a1.9988,1.9988,0,0,0-2,2v16a1.9988,1.9988,0,0,0,2,2H22a1.9988,1.9988,0,0,0,2-2v-16a1.9988,1.9988,0,0,0-2-2H16.1641c.8293-9.906,7.5261-16,13.8359-16,10.02,0,16,9.7188,16,26,0,18.5039,7.6641,30,20,30,8.21,0,16.9387-7.626,17.8274-20H90a1.9988,1.9988,0,0,0,2-2v-16A1.9988,1.9988,0,0,0,90,38.5Z"></path></svg>